<svg width="518" height="628" viewBox="0 0 518 628" fill="none" xmlns="http://www.w3.org/2000/svg">
<ellipse cx="175" cy="527" rx="174" ry="12" fill="black" fill-opacity="0.5"/>
<path d="M305.866 158.582C304.557 158.776 303.017 158.878 302.706 160.437C302.464 161.645 302.556 162.888 303.28 163.936C304.517 165.726 306.355 166.771 308.568 166.402C310.548 166.072 313.266 164.279 313.266 162.051C313.266 160.795 312.362 159.531 311.613 158.591C310.811 157.583 310.118 156.524 309.108 155.7C307.746 154.589 306.646 154.48 305.421 155.79C304.751 156.507 304.117 157.485 303.823 158.424C303.679 158.887 303.785 159.258 303.785 159.722C303.785 160.34 303.67 159.428 303.785 159.122" stroke="#ffd63a" stroke-opacity="0.5" stroke-linecap="round" stroke-linejoin="round"/>
<path d="M312.65 162.122C313.764 163.111 314.708 164.005 316.677 164.053C318.056 164.087 319.435 163.743 320.727 163.372C321.652 163.107 324.618 161.702 322.215 161.589" stroke="#ffd63a" stroke-opacity="0.5" stroke-linecap="round" stroke-linejoin="round"/>
<path d="M324.135 153.495C322.666 155.118 320.637 158.299 321.399 160.737C321.667 161.594 322.056 162.171 322.559 162.903C323.573 164.377 325.143 163.918 326.568 163.533C327.601 163.254 328.828 162.375 329.223 161.375C329.769 159.994 328.631 157.837 327.681 156.887C326.62 155.826 325.78 154.535 324.598 153.606C324.283 153.359 324.045 153.091 323.634 153.182C323.173 153.285 322.983 153.726 323.596 153.726" stroke="#ffd63a" stroke-opacity="0.5" stroke-linecap="round" stroke-linejoin="round"/>
<path d="M193.125 111.395C200.672 107.8 206.772 101.855 212.907 96.2494C217.728 91.8434 222.784 87.4898 228.105 83.6876C229.155 82.9373 230.638 81.4275 232.057 82.071C233.464 82.7086 234.274 84.4448 235.386 85.4729C238.123 88.0047 240.585 91.0986 242.835 94.0738C245.313 97.349 241.598 99.1618 239.301 101.306C236.692 103.742 234.2 106.254 231.351 108.403C228.642 110.446 226.466 113.262 223.986 115.575C220.207 119.1 216.672 122.853 212.904 126.381C210.661 128.481 208.087 130.196 205.927 132.371C205.17 133.133 204.47 134.141 203.597 134.775C202.896 135.285 201.926 133.325 201.676 132.956C199.695 130.026 196.626 128.021 194.686 124.957C193.467 123.03 192.646 120.652 191.186 118.892C190.489 118.052 188.747 116.161 189.51 114.934C190.29 113.681 192.503 113.081 193.71 112.184C194.651 111.484 195.795 110.621 196.866 110.134C197.644 109.781 198.408 109.154 199.104 108.672C200.936 107.402 198.995 107.945 197.756 108.417" stroke="#ffd63a" stroke-opacity="0.5" stroke-linecap="round" stroke-linejoin="round"/>
<path d="M194.278 117.148C198.872 119.992 202.993 124.108 206.58 128.167C206.67 128.27 207.543 128.878 207.41 129.103C207.153 129.538 204.171 127.575 203.887 127.379" stroke="#ffd63a" stroke-opacity="0.5" stroke-linecap="round" stroke-linejoin="round"/>
<path d="M198.832 113.036C202.557 114.102 204.777 116.132 207.784 118.303C209.124 119.27 210.488 120.143 211.69 121.281C212.255 121.815 212.657 122.518 213.179 123.094C213.894 123.883 210.974 122.178 210.63 121.981" stroke="#ffd63a" stroke-opacity="0.5" stroke-linecap="round" stroke-linejoin="round"/>
<path d="M204.244 109.848C206.851 112.201 209.471 114.521 212.159 116.778C213.18 117.636 214.34 118.423 215.222 119.434C216.788 121.227 214.737 118.9 214.041 118.243" stroke="#ffd63a" stroke-opacity="0.5" stroke-linecap="round" stroke-linejoin="round"/>
<path d="M207.896 107.606C209.83 108.781 211.849 109.92 213.486 111.505C214.158 112.156 214.715 112.922 215.433 113.524C216.317 114.266 217.092 115.132 217.982 115.853C219.25 116.88 219.441 117.18 217.935 115.891" stroke="#ffd63a" stroke-opacity="0.5" stroke-linecap="round" stroke-linejoin="round"/>
<path d="M212.604 104.154C214.737 105.824 216.712 107.519 218.495 109.555C219.285 110.457 219.922 111.498 220.924 112.19C221.843 112.824 222.486 113.007 221.411 111.977" stroke="#ffd63a" stroke-opacity="0.5" stroke-linecap="round" stroke-linejoin="round"/>
<path d="M217.137 100.637C219.015 102.048 220.866 103.336 222.367 105.154C223.053 105.986 223.595 106.942 224.362 107.709C225.92 109.268 224.849 108.482 223.722 107.424" stroke="#ffd63a" stroke-opacity="0.5" stroke-linecap="round" stroke-linejoin="round"/>
<path d="M221.317 96.9865C223.954 99.5088 226.162 102.463 228.803 104.954C230.582 106.632 228.034 103.944 227.617 103.466" stroke="#ffd63a" stroke-opacity="0.5" stroke-linecap="round" stroke-linejoin="round"/>
<path d="M226.421 94.0849C228.641 93.1787 230.943 92.0987 232.135 89.8844C232.464 89.2738 232.888 88.7423 233.023 88.0541C233.209 87.1091 233.172 87.5145 232.472 88.1261" stroke="#ffd63a" stroke-opacity="0.5" stroke-linecap="round" stroke-linejoin="round"/>
<path d="M229.994 97.1325C231.754 95.4998 233.721 93.7163 235.01 91.6438C235.653 90.6101 236.878 89.3483 235.165 90.8434" stroke="#ffd63a" stroke-opacity="0.5" stroke-linecap="round" stroke-linejoin="round"/>
<path d="M235.635 100.555C237.238 98.8126 238.665 97.1923 240.141 95.3707C240.617 94.7821 242.07 94.0184 240.322 94.4854" stroke="#ffd63a" stroke-opacity="0.5" stroke-linecap="round" stroke-linejoin="round"/>
<path d="M234.36 99.6744C236.038 98.2365 237.935 96.5623 239.265 94.7466C239.62 94.2622 239.893 93.7227 240.218 93.2194C240.762 92.3764 240.796 92.6611 239.971 92.7476" stroke="#ffd63a" stroke-opacity="0.5" stroke-linecap="round" stroke-linejoin="round"/>
<path d="M198.808 120.053C207.168 116.657 209.231 107.44 216.043 102.228C216.872 101.594 217.545 100.889 218.512 100.45C219.158 100.157 219.956 100.016 220.544 99.6405C220.903 99.4114 223.882 97.1352 221.812 98.0756" stroke="#ffd63a" stroke-opacity="0.5" stroke-linecap="round" stroke-linejoin="round"/>
<path d="M194.915 117.588C195.854 116.447 196.687 115.471 197.877 114.646C198.072 114.51 198.373 114.488 198.534 114.307C198.852 113.949 199.334 113.425 199.456 112.964C199.939 111.145 202.297 111.481 203.55 110.569C204.741 109.702 205.888 108.823 207.103 107.966C208.441 107.022 209.06 106.194 210.135 104.984C211.122 103.872 212.081 102.748 213.126 101.696C213.981 100.835 215.324 100.052 215.868 98.9504C216.482 97.707 218.052 96.2839 219.465 96.5143C219.95 96.5935 223.515 98.6596 221.185 97.3385" stroke="#ffd63a" stroke-opacity="0.5" stroke-linecap="round" stroke-linejoin="round"/>
<path d="M202.48 122.033C208.763 118.72 212.249 111.495 216.492 106.037C218.055 104.027 220.288 102.691 221.924 100.716C222.624 99.8714 224.169 98.974 222.372 98.9885" stroke="#ffd63a" stroke-opacity="0.5" stroke-linecap="round" stroke-linejoin="round"/>
<path d="M204.723 124.08C210.416 120.58 214.06 114.069 218.202 108.91C220.086 106.562 221.905 104.166 223.812 101.837C224.682 100.776 226.198 100.113 224.252 101.2" stroke="#ffd63a" stroke-opacity="0.5" stroke-linecap="round" stroke-linejoin="round"/>
<path d="M206.966 127.732C210.518 124.268 213.386 120.53 216.292 116.523C218.059 114.087 219.587 111.348 221.662 109.155C222.853 107.896 223.769 106.422 224.85 105.088C225.286 104.55 225.586 103.924 226.034 103.391C227.042 102.19 226.339 103.276 225.637 103.928" stroke="#ffd63a" stroke-opacity="0.5" stroke-linecap="round" stroke-linejoin="round"/>
<path d="M207.801 129.25C209.569 127.518 212.159 125.852 213.338 123.605C213.766 122.79 214.825 120.821 215.568 120.322C216.551 119.662 217.019 118.259 217.733 117.377C218.478 116.458 219.207 115.561 220.015 114.687C220.772 113.867 221.015 112.428 221.952 111.723C222.997 110.937 223.505 109.72 224.339 108.782C225.06 107.97 226.433 107.129 227.328 106.508C227.824 106.165 228.17 105.696 228.732 105.441C229.872 104.923 229.132 105.188 228.089 105.149" stroke="#ffd63a" stroke-opacity="0.5" stroke-linecap="round" stroke-linejoin="round"/>
<path d="M226.278 94.7336C227.74 95.1191 229.543 95.3838 230.876 96.1807C231.736 96.695 232.485 97.2114 230.919 96.2748" stroke="#ffd63a" stroke-opacity="0.5" stroke-linecap="round" stroke-linejoin="round"/>
<path d="M227.796 92.2927C229.882 92.8376 231.357 93.4485 233.057 94.5575C234.17 95.2826 233.991 95.0819 232.833 94.3839" stroke="#ffd63a" stroke-opacity="0.5" stroke-linecap="round" stroke-linejoin="round"/>
<path d="M230.327 89.8301C232.118 90.8374 233.856 91.9823 235.708 92.8593C236.797 93.3752 236.226 93.3391 235.385 92.9331" stroke="#ffd63a" stroke-opacity="0.5" stroke-linecap="round" stroke-linejoin="round"/>
<path d="M231.768 87.8618C233.651 88.7194 235.388 89.5734 237.122 90.6522C237.913 91.1441 237.195 91.1759 236.595 90.7778" stroke="#ffd63a" stroke-opacity="0.5" stroke-linecap="round" stroke-linejoin="round"/>
<path d="M227.202 93.8762C228.625 92.1844 230.052 90.5813 231.348 88.8473C231.716 88.3546 233.958 85.6116 232.989 87.0155" stroke="#ffd63a" stroke-opacity="0.5" stroke-linecap="round" stroke-linejoin="round"/>
<path d="M228.697 96.8461C230.548 95.2093 233.216 93.0269 233.814 90.5815C233.99 89.8618 234.371 89.1425 234.93 88.6474C235.497 88.1454 236.09 87.9186 235.243 88.7649" stroke="#ffd63a" stroke-opacity="0.5" stroke-linecap="round" stroke-linejoin="round"/>
<path d="M227.212 96.7906C229.186 94.6643 230.874 93.2351 231.989 90.6157C232.279 89.9354 232.611 89.3716 233.086 88.8362C233.59 88.269 234.313 87.7377 233.34 88.7532" stroke="#ffd63a" stroke-opacity="0.5" stroke-linecap="round" stroke-linejoin="round"/>
<path d="M234.547 97.8379C235.456 98.4142 236.368 98.9483 237.313 99.428C237.703 99.6261 237.22 99.2427 237.054 99.1804" stroke="#ffd63a" stroke-opacity="0.5" stroke-linecap="round" stroke-linejoin="round"/>
<path d="M236.319 94.99C236.38 95.0423 239.954 98.1045 239.32 97.4216" stroke="#ffd63a" stroke-opacity="0.5" stroke-linecap="round" stroke-linejoin="round"/>
<path d="M238.442 93.8799C239.23 94.6384 241.645 96.8568 240.795 96.1682" stroke="#ffd63a" stroke-opacity="0.5" stroke-linecap="round" stroke-linejoin="round"/>
<path d="M233.491 99.0473C234.798 97.8306 237.663 95.4201 238.365 93.55C238.642 92.813 239.909 91.866 238.717 92.8792" stroke="#ffd63a" stroke-opacity="0.5" stroke-linecap="round" stroke-linejoin="round"/>
<path d="M233.656 99.4102C233.78 99.5095 236.279 102.201 236.812 100.896C237.084 100.23 237.438 99.3621 238.105 98.9949C239.276 98.3508 239.492 96.3219 240.69 95.7777C242.05 95.1603 241.923 94.125 240.657 93.7578C240.159 93.6135 240.552 92.6333 240.035 92.7103C239.562 92.7808 239.312 92.6063 238.783 92.7032" stroke="#ffd63a" stroke-opacity="0.5" stroke-linecap="round" stroke-linejoin="round"/>
<path d="M226.113 94.3707C226.97 96.0085 227.132 96.6023 228.515 97.2853C228.888 97.4697 229.376 97.214 229.659 97.3578C230.219 97.6424 231.327 97.6483 231.746 97.1318C232.587 96.0933 232.897 95.423 234.185 94.7913C234.999 94.3928 235.653 93.4525 236.029 92.673C236.442 91.8163 237.187 91.1708 237.624 90.3108C237.81 89.9447 236.309 89.0015 236.295 88.3681C236.292 88.1884 234.51 88.1831 234.213 88.0326C233.854 87.8502 233.689 87.5932 233.517 87.2136C233.265 86.6592 232.819 87.3476 232.142 87.4001" stroke="#ffd63a" stroke-opacity="0.5" stroke-linecap="round" stroke-linejoin="round"/>
<path d="M196.434 115.147C198.458 115.916 200.224 116.908 202.046 118.006C203.629 118.96 205.417 119.467 206.989 120.391C208.108 121.049 209.27 122.551 210.096 123.537C210.371 123.866 210.577 124.173 210.772 124.544C211.22 125.394 210.754 123.339 210.707 123.114" stroke="#ffd63a" stroke-opacity="0.5" stroke-linecap="round" stroke-linejoin="round"/>
<path d="M215.982 99.7013C216.544 100.291 218.817 103.545 218.368 101.099" stroke="#ffd63a" stroke-opacity="0.5" stroke-linecap="round" stroke-linejoin="round"/>
<path d="M220.661 325.572C220.902 326.811 221.514 327.616 221.989 328.744C222.312 329.511 222.916 330.106 223.253 330.859C223.616 331.672 224.161 332.628 224.667 333.352C225.102 333.972 225.386 334.56 225.935 335.109C226.903 336.077 227.636 337.232 228.61 338.187C230.025 339.575 232.421 341.386 234.482 341.272C235.144 341.235 235.877 341.44 236.527 341.342C237.084 341.258 237.761 341.23 238.319 341.326C239.236 341.485 240.232 341.325 241.109 341.515C241.583 341.618 242.099 341.468 242.578 341.557C243.2 341.672 243.929 341.701 244.562 341.701C246.636 341.701 248.705 341.688 250.774 341.426C251.895 341.283 253.005 341.655 254.115 341.458C255.156 341.272 256.543 341.464 257.523 341.035C258.727 340.508 259.924 339.68 260.854 338.75C261.321 338.284 261.674 337.727 261.99 337.15C262.405 336.393 262.636 335.576 263.053 334.821C264.506 332.186 265.335 329.253 266.512 326.507C266.789 325.859 267.245 325.335 267.578 324.737C267.662 324.586 267.7 324.393 267.837 324.247C268.35 323.704 267.367 323.646 266.915 323.441" stroke="#ffd63a" stroke-opacity="0.5" stroke-linecap="round" stroke-linejoin="round"/>
<path d="M220.43 325.687C221.46 324.341 222.333 323.351 223.829 322.59C225.081 321.952 226.38 321.195 227.512 320.362C229.251 319.084 231.645 318.514 233.762 318.129C236.067 317.71 238.335 317.22 240.681 317.22C241.406 317.22 242.124 317.438 242.85 317.45C243.719 317.465 244.59 317.492 245.455 317.566C246.783 317.679 248.145 317.652 249.474 317.681C251.329 317.721 253.105 318.681 254.959 318.83C256.063 318.918 257.349 319.083 258.422 319.383C258.824 319.496 259.282 319.572 259.657 319.754C260.124 319.981 260.451 320.365 260.88 320.631C262.263 321.492 263.81 321.897 265.305 322.551C265.764 322.752 266.552 323.095 267.059 323.095C267.758 323.095 267.721 324.385 267.721 323.095" stroke="#ffd63a" stroke-opacity="0.5" stroke-linecap="round" stroke-linejoin="round"/>
<path d="M267.606 323.902C266.752 325.047 266.143 325.483 264.931 326.151C263.979 326.676 262.925 327.048 261.859 327.243C260.863 327.425 259.776 327.568 258.767 327.649C257.928 327.716 257.071 327.619 256.214 327.716C254.274 327.937 252.318 328.437 250.447 328.984C247.777 329.764 245.198 329.845 242.44 329.995C239.43 330.158 236.411 329.928 233.461 329.316C232.466 329.11 231.414 329.295 230.402 329.256C229.286 329.212 228.193 328.905 227.144 328.542C226.702 328.389 226.295 328.155 225.832 328.049C225.29 327.926 224.738 327.974 224.2 327.844C223.45 327.663 222.574 327.336 221.941 326.897C221.665 326.706 221.251 326.549 221.035 326.26C220.972 326.176 220.891 325.989 220.891 325.889C220.891 325.651 220.696 325.711 221.006 325.918" stroke="#ffd63a" stroke-opacity="0.5" stroke-linecap="round" stroke-linejoin="round"/>
<path d="M242.838 335.595C243.539 335.517 244.465 335.53 244.175 334.629C244.082 334.339 243.848 334.308 243.599 334.225C242.858 333.978 241.532 334.457 241.253 335.23C240.754 336.618 241.7 338.118 243.186 337.637C243.591 337.506 244.308 337.22 244.566 336.853C244.874 336.412 244.411 336.542 244.105 336.113" stroke="#ffd63a" stroke-opacity="0.5" stroke-linecap="round" stroke-linejoin="round"/>
<path d="M240.706 334.097C241.824 333.649 242.395 333.464 243.526 333.464C243.981 333.464 244.209 333.432 244.61 333.694C245.274 334.128 245.502 334.952 245.433 335.678C245.374 336.291 245.172 337.131 244.956 337.713C244.796 338.146 244.399 338.221 243.993 338.302C243.622 338.376 242.813 338.169 242.521 338.331C242.211 338.503 241.263 338.561 241.023 338.241C240.803 337.947 240.566 337.821 240.405 337.464C240.252 337.123 240.183 336.798 240.06 336.459C239.891 335.994 239.587 334.723 240.217 334.443C240.586 334.279 240.744 334.181 241.167 334.181C241.287 334.181 241.39 334.27 241.513 334.27C241.69 334.27 241.171 334.155 240.994 334.155" stroke="#ffd63a" stroke-opacity="0.5" stroke-linecap="round" stroke-linejoin="round"/>
<path d="M242.722 329.489C243.535 328.439 244.276 327.355 245.116 326.334C245.567 325.785 246.127 325.313 246.614 324.788C248.006 323.285 249.424 321.639 250.486 319.882C251.531 318.152 252.958 316.267 254.508 314.967C255.327 314.28 256.059 313.522 256.771 312.73C257.462 311.962 257.78 310.889 258.435 310.077C258.942 309.449 262.26 305.174 262.838 307.773C263.065 308.795 262.069 309.509 261.443 310.135C260.733 310.845 260.019 311.747 259.414 312.554C258.831 313.332 258.121 314.016 257.555 314.801C256.784 315.868 255.381 316.632 254.819 317.841C254.355 318.838 253.585 319.64 253.007 320.564C252.207 321.845 251.269 322.915 250.326 324.087C249.578 325.016 248.407 325.78 247.878 326.839C247.435 327.724 246.651 328.097 245.935 328.67C245.624 328.919 245.245 329.058 244.969 329.403C244.877 329.518 244.712 329.65 244.626 329.521C244.577 329.448 244.39 329.613 244.425 329.694C244.548 329.981 244.249 329.005 244.22 328.913" stroke="#ffd63a" stroke-opacity="0.5" stroke-linecap="round" stroke-linejoin="round"/>
<path d="M242.261 329.777C242.482 329.889 243.874 330.946 243.874 330.094C243.874 329.836 244.206 329.406 244.322 329.144C244.411 328.945 243.615 329.135 243.497 329.288C243.342 329.486 243.042 329.648 243.529 329.662C243.903 329.673 244.195 329.512 244.479 329.291C244.561 329.227 245.66 329.401 244.681 329.374C244.16 329.359 243.654 329.374 243.154 329.374C242.722 329.374 243.598 329.259 243.724 329.259C243.825 329.259 242.994 329.753 242.85 329.592C242.815 329.552 242.755 329.444 242.895 329.374" stroke="#ffd63a" stroke-opacity="0.5" stroke-linecap="round" stroke-linejoin="round"/>
<path d="M223.944 325.515C224.009 325.549 226.067 326.627 226.075 326.494C226.085 326.333 225.97 326.192 226.05 326.033C226.398 325.336 226.849 325.671 227.448 325.94C227.916 326.151 227.206 323.82 228.616 324.804C229.345 325.313 229.539 325.232 229.419 324.379C229.329 323.733 229.552 323.731 230.107 323.799C230.485 323.846 230.756 323.928 230.971 323.569C231.233 323.133 231.528 322.885 232.063 323.073C232.506 323.229 232.9 323.668 233.205 323.108C233.339 322.862 233.226 322.125 233.65 322.267C233.916 322.355 234.266 322.702 234.568 322.593C234.798 322.51 234.974 321.799 235.234 321.911C235.505 322.029 235.781 322.543 236.124 322.42C236.289 322.361 236.595 321.821 236.271 321.886" stroke="#ffd63a" stroke-opacity="0.5" stroke-linecap="round" stroke-linejoin="round"/>
<path d="M232.066 324.478C232.78 325.059 235.454 328.162 236.239 325.844C236.38 325.429 236.402 324.607 236.796 325.287C237.12 325.848 237.609 326.237 238.14 325.707C238.492 325.355 238.648 324.758 239.151 324.574C239.613 324.405 239.951 325.273 240.335 324.766C240.645 324.357 240.495 323.654 240.041 323.409C239.892 323.328 239.85 323.606 239.785 323.671" stroke="#ffd63a" stroke-opacity="0.5" stroke-linecap="round" stroke-linejoin="round"/>
<path d="M238.229 320.907C239.342 320.715 240.743 320.326 241.589 321.323C241.982 321.784 241.944 322.374 241.685 322.897C241.496 323.279 240.987 323.47 240.661 323.095C240.395 322.788 240.945 322.281 241.141 322.094C241.816 321.451 242.815 322.48 243.026 323.179C243.203 323.762 241.608 325.114 241.801 324.535" stroke="#ffd63a" stroke-opacity="0.5" stroke-linecap="round" stroke-linejoin="round"/>
<path d="M256.95 322.865C257.28 322.751 259.406 322.067 258.998 323.198C258.789 323.778 257.987 324.089 257.462 324.279C257.213 324.369 256.571 324.354 256.988 323.991C257.349 323.678 257.858 323.53 258.332 323.569C260.181 323.719 257.596 325.843 257.065 326.136C256.034 326.704 254.631 327.303 253.551 326.609" stroke="#ffd63a" stroke-opacity="0.5" stroke-linecap="round" stroke-linejoin="round"/>
<path d="M245.602 319.466C246.041 320.18 246.568 320.896 246.943 321.646C247.072 321.904 246.514 321.243 246.383 320.987C246.348 320.919 246.108 320.162 246.085 320.167C245.805 320.23 245.739 321.514 245.663 321.751C245.304 322.873 244.417 322.443 243.548 322.359C242.495 322.258 242.024 323.296 241.442 323.959C240.976 324.49 240.793 324.653 241.109 325.284C241.365 325.795 241.471 326.291 241.109 326.753C240.827 327.114 240.474 327.342 240.133 327.64C239.821 327.912 240.269 327.867 240.21 327.704C240.05 327.256 239.064 327.349 238.741 327.371C237.542 327.45 236.321 327.149 235.144 327.224C234.519 327.263 233.93 327.612 233.311 327.704C232.681 327.797 233.513 328.343 233.749 328.5C234.155 328.771 232.955 327.925 232.514 327.716C231.774 327.366 231.092 327.096 230.709 326.321C230.325 325.545 229.988 325.016 229.339 324.446C229.116 324.249 229.089 323.951 229.198 323.684C229.451 323.067 230.012 322.565 230.568 322.231" stroke="#ffd63a" stroke-opacity="0.5" stroke-linecap="round" stroke-linejoin="round"/>
<path d="M245.487 321.771C244.043 320.763 242.852 320.329 241.154 320.1C240.557 320.02 239.921 319.607 239.532 319.15C239.186 318.744 239.382 318.852 238.975 319.402C238.419 320.155 238.006 319.48 237.295 319.678C236.206 319.981 235.271 320.994 234.165 321.182C233.862 321.233 233.935 320.727 233.557 320.945C232.92 321.312 232.433 321.66 231.688 321.777C231.238 321.848 230.384 322.144 230.453 322.692" stroke="#ffd63a" stroke-opacity="0.5" stroke-linecap="round" stroke-linejoin="round"/>
<path d="M255.279 321.771C256.673 321.905 258.084 321.888 259.472 322.036C259.96 322.088 260.21 322.286 260.553 322.606C260.863 322.894 261.347 323.574 261.792 323.611C262.433 323.664 262.764 323.398 263.363 323.211C263.723 323.098 264.873 323.211 264.496 323.211" stroke="#ffd63a" stroke-opacity="0.5" stroke-linecap="round" stroke-linejoin="round"/>
<path d="M254.243 323.326C252.745 324.313 251.945 325.81 250.342 326.708C250.024 326.886 249.053 327.231 249.126 327.816C249.179 328.239 252.424 326.914 252.918 326.667" stroke="#ffd63a" stroke-opacity="0.5" stroke-linecap="round" stroke-linejoin="round"/>
<path d="M259.83 324.708C260.644 325.314 261.347 326.181 262.365 325.873C262.64 325.79 263.216 325.757 263.401 325.572" stroke="#ffd63a" stroke-opacity="0.5" stroke-linecap="round" stroke-linejoin="round"/>
<path d="M461.132 299.597C456.925 300.404 453.867 301.619 451.201 305.047C449.511 307.219 449.882 310.638 450.989 312.941C452.813 316.736 457.298 318.879 461.344 319.065C466.057 319.281 472.609 317.896 473.575 312.275C474.093 309.262 471.214 306.413 469.866 303.942C468.77 301.931 467.118 299.221 464.81 298.371C463.868 298.024 461.681 298.144 460.995 299.082C460.689 299.501 460.295 299.944 460.072 300.414C459.891 300.796 460.085 299.444 460.042 299.052" stroke="#ffd63a" stroke-opacity="0.5" stroke-linecap="round" stroke-linejoin="round"/>
<path d="M462.903 309.951C461.768 310.535 459.926 310.921 460.92 312.199C461.146 312.491 461.469 312.475 461.745 312.199C461.98 311.964 463.167 310.728 462.29 310.436C460.502 309.84 461.156 313.407 462.433 311.829C463.12 310.981 462.159 310.146 461.298 310.663C460.272 311.278 461.084 312.353 461.889 311.42C462.495 310.716 462.011 310.177 461.351 310.837C460.76 311.428 461.36 312.37 461.941 311.571C462.537 310.752 461.858 310.058 461.139 310.776C460.307 311.608 461.208 311.521 461.798 310.973C462.392 310.421 461.338 310.502 460.995 310.935C460.2 311.941 461.446 311.798 461.646 310.935C461.941 309.668 460.634 312.58 461.268 310.36" stroke="#ffd63a" stroke-opacity="0.5" stroke-linecap="round" stroke-linejoin="round"/>
<path d="M458.271 305.728C459.481 307.325 460.721 308.839 461.737 310.436C462.019 310.878 461.794 311.322 461.949 311.314C462.522 311.282 463.11 311.178 463.72 311.178C465.118 311.178 466.218 310.496 467.565 310.496C469.196 310.496 471.593 310.073 468.897 308.725" stroke="#ffd63a" stroke-opacity="0.5" stroke-linecap="round" stroke-linejoin="round"/>
<path d="M456.908 299.461C456.653 298.173 455.41 295.05 457.725 295.381C458.556 295.5 459.114 296.359 459.603 296.902C460.874 298.315 460.738 300.021 458.679 300.142C458.14 300.174 457.38 301.243 456.772 300.483C456.083 299.621 456.786 299.679 456.908 298.643C456.988 297.966 456.545 298.022 456.355 297.356C456.21 296.846 456.512 296.287 456.635 295.918" stroke="#ffd63a" stroke-opacity="0.5" stroke-linecap="round" stroke-linejoin="round"/>
<path d="M457.726 297.962C457.713 298.287 457.212 301.22 458.278 300.74C458.635 300.579 458.944 300.346 459.088 299.975C459.228 299.617 459.079 299.402 458.921 299.052C458.515 298.149 457.336 296.745 457.695 298.779C457.922 300.063 459.355 299.763 459.466 298.537C459.552 297.601 458.371 296.347 457.62 297.417C457.088 298.174 458.035 299.842 458.588 298.673C458.87 298.08 458.197 296.571 457.483 297.311C456.751 298.069 457.851 299.669 458.573 299.022C459.287 298.382 458.802 296.43 458.028 297.175C457.321 297.856 458.382 299.212 458.921 298.174C459.523 297.016 458.198 296.143 457.786 297.356C457.418 298.44 458.565 299.604 458.831 298.128C459.033 297.005 456.969 296.408 456.969 297.75C456.969 298.987 458.074 298.86 458.074 297.735C458.074 296.562 456.893 296.826 457.385 297.811C457.877 298.795 458.537 297.048 457.983 296.494C457.336 295.847 456.479 296.847 457.241 297.47C457.76 297.895 458.47 296.132 457.597 295.805C456.843 295.522 457.26 297.062 457.521 296.713C457.926 296.173 457.305 295.811 457.733 295.918C458.11 296.013 459.026 296.214 459.285 296.547C459.488 296.808 460.314 298.265 460.314 298.643C460.314 299.8 458.544 300.424 457.529 300.134C456.8 299.926 456.584 300.441 456.84 300.271C457.46 299.857 457.589 298.779 457.589 299.188" stroke="#ffd63a" stroke-opacity="0.5" stroke-linecap="round" stroke-linejoin="round"/>
<path d="M457.589 318.943C456.888 320.432 456.265 321.927 455.44 323.334C455.254 323.65 454.905 324.297 454.864 324.666C454.754 325.66 455.752 322.295 455.954 321.805" stroke="#ffd63a" stroke-opacity="0.5" stroke-linecap="round" stroke-linejoin="round"/>
<path d="M471.35 316.082C473.075 318.261 474.978 319.815 476.323 322.206C476.455 322.441 476.685 322.628 476.868 322.811C477.48 323.423 475.732 321.505 475.165 320.851" stroke="#ffd63a" stroke-opacity="0.5" stroke-linecap="round" stroke-linejoin="round"/>
<path d="M357.065 189.051C358.144 193.123 362.31 208.26 363.307 213.791C366.051 229.019 361.745 208.24 361.735 214.966" stroke="#ffd63a" stroke-opacity="0.5" stroke-width="2" stroke-linecap="round" stroke-linejoin="round"/>
<path d="M349.754 195.634C349.386 189.438 347.996 180.838 356.684 181.723C360.772 182.14 365.274 184.566 367.822 187.812C371.76 192.828 369.683 200.604 365.428 204.596C363.163 206.72 360.966 207.785 358.003 208.588C352.982 209.949 356.944 202.976 357.753 201.064" stroke="#ffd63a" stroke-opacity="0.5" stroke-width="2" stroke-linecap="round" stroke-linejoin="round"/>
<path d="M372.352 203.207C380.985 202.745 388.931 201.046 392.02 210.408C393.814 215.849 396 222.46 394.504 228.194C393.152 233.375 390.24 236.614 384.916 234.407C377.308 231.253 377.318 225.315 381.459 219.393C382.984 217.213 388.823 212.847 388.827 210.298" stroke="#ffd63a" stroke-opacity="0.5" stroke-width="2" stroke-linecap="round" stroke-linejoin="round"/>
<path d="M387.912 193.104C387.618 195.375 387.613 211.444 383.264 211.598C382.448 211.627 381.764 212.051 381.051 212.406C378.313 213.769 379.979 212.542 381.001 211.123C383.316 207.909 388.006 209.097 390.353 204.831C392.903 200.199 394.077 197.921 390.422 194.338C387.861 191.826 388.986 187.555 386.969 193.573" stroke="#ffd63a" stroke-opacity="0.5" stroke-width="2" stroke-linecap="round" stroke-linejoin="round"/>
<path d="M400.653 178.522C403.99 186.033 407.039 195.815 412.392 202.354C413.806 204.082 414.6 202.578 414.578 201.232C414.551 199.532 414.072 197.816 413.579 196.206" stroke="#ffd63a" stroke-opacity="0.5" stroke-width="2" stroke-linecap="round" stroke-linejoin="round"/>
<path d="M390.966 198.055C396.26 195.972 409.258 193.864 411.473 187.253" stroke="#ffd63a" stroke-opacity="0.5" stroke-width="2" stroke-linecap="round" stroke-linejoin="round"/>
<path d="M407.247 178.768C430.192 218.902 407.838 190.694 419.5 183.353C426.58 178.898 427.17 199.897 429.132 190.814" stroke="#ffd63a" stroke-opacity="0.5" stroke-width="2" stroke-linecap="round" stroke-linejoin="round"/>
<path d="M427.74 177.387C428.572 179.876 431.368 196.307 437.189 192.554C439.792 190.875 442.824 187.675 443.325 184.529C443.864 181.154 441.755 172.579 436.984 173.502C434.806 173.924 431.164 174.025 429.744 176.095C428.371 178.095 427.504 182.779 429.152 177.86" stroke="#ffd63a" stroke-opacity="0.5" stroke-width="2" stroke-linecap="round" stroke-linejoin="round"/>
<path d="M443.997 173.409C450.504 169.231 458.152 167.86 459.142 177.698C459.266 178.933 459.289 180.488 459.856 181.625C460.512 182.943 459.163 178.403 457.886 177.67" stroke="#ffd63a" stroke-opacity="0.5" stroke-width="2" stroke-linecap="round" stroke-linejoin="round"/>
<path d="M443.52 177.176C443.814 182.319 443.079 189.286 445.482 194.111C445.564 194.275 446.135 195.534 445.847 194.844C445.278 193.479 445.042 192.553 443.969 191.073" stroke="#ffd63a" stroke-opacity="0.5" stroke-width="2" stroke-linecap="round" stroke-linejoin="round"/>
<path d="M278.833 223.734C277.932 232.093 279.503 257.829 265.305 256.227C262.345 255.894 259.657 255.399 258.251 252.61C256.778 249.69 255.56 247.149 255.414 243.832C255.234 239.758 256.856 237.835 260.15 235.996C261.305 235.352 258.823 237.962 258.603 238.215C257.155 239.878 262.067 237.851 263.945 237.435" stroke="#ffd63a" stroke-opacity="0.5" stroke-width="2" stroke-linecap="round" stroke-linejoin="round"/>
<path d="M297.06 227.75C289.879 228.422 279.743 229.783 278.584 238.767C277.956 243.64 285.201 244.232 288.345 245.892C293.748 248.743 297.848 258.043 291.787 262.136C287.573 264.982 284.385 263.469 280.286 263.753C276.121 264.042 279.021 262.507 281.49 262.086" stroke="#ffd63a" stroke-opacity="0.5" stroke-width="2" stroke-linecap="round" stroke-linejoin="round"/>
<path d="M335.973 6.57333C335.397 12.3405 335.047 18.1668 334.336 23.9203C334.267 24.4739 333.722 26.6592 334.367 24.8924C334.838 23.6006 334.686 22.2544 335.442 21.0294C336.485 19.3421 341.194 12.9151 343.406 13.5652C347.839 14.8682 343.365 23.0911 342.096 25.4474C341.658 26.26 340.465 28.0228 341.083 28.9341C341.906 30.149 343.429 25.6592 343.494 25.5218" stroke="#ffd63a" stroke-opacity="0.5" stroke-width="2" stroke-linecap="round" stroke-linejoin="round"/>
<path d="M353.482 10.3603C352.956 12.9369 348.543 25.655 352.795 27.7616C353.995 28.3561 356.65 27.2339 357.475 26.2665C358.334 25.2591 357.885 23.7166 357.792 22.5474" stroke="#ffd63a" stroke-opacity="0.5" stroke-width="2" stroke-linecap="round" stroke-linejoin="round"/>
<path d="M344.733 10.6382C349.398 12.0256 354.196 12.9493 358.832 14.3807C359.926 14.7186 360.336 14.8716 360.925 15.8477C361.841 17.366 359.407 15.9791 358.987 15.5192" stroke="#ffd63a" stroke-opacity="0.5" stroke-width="2" stroke-linecap="round" stroke-linejoin="round"/>
<path d="M365.831 19.6529C364.76 22.8857 363.754 26.1591 362.531 29.3404C362.289 29.9729 362.252 30.2042 362.121 29.7211C361.995 29.2557 361.872 28.9815 362.079 28.49C363.177 25.878 365.74 22.1241 368.158 20.6652C370.768 19.0897 369.344 24.3816 368.993 25.4529C368.599 26.656 367.538 29.9535 368.745 26.7627C369.462 24.8638 371.11 20.1445 373.888 20.8314C375.57 21.2474 375.182 23.5219 374.885 24.7246C374.336 26.9425 373.791 29.1455 373.241 31.3708C372.437 34.6225 372.871 32.8665 373.459 30.4903" stroke="#ffd63a" stroke-opacity="0.5" stroke-width="2" stroke-linecap="round" stroke-linejoin="round"/>
<path d="M386.569 12.5746C384.893 18.6026 382.837 24.6134 381.393 30.7041C381.224 31.4184 380.854 34.0633 381.992 34.3784C383.072 34.6777 387.341 32.1129 386.298 31.2237" stroke="#ffd63a" stroke-opacity="0.5" stroke-width="2" stroke-linecap="round" stroke-linejoin="round"/>
<path d="M96.4273 258.46C92.464 265.989 88.5135 273.525 84.5395 281.048C83.4068 283.193 81.1712 289.753 80.8944 287.344C80.5191 284.077 82.5151 279.504 83.3621 276.443C84.5574 272.122 86.9913 263.49 93.0562 263.522C97.6342 263.547 102.781 270.26 103.491 274.448C103.992 277.406 105.45 274.066 107.428 273.174" stroke="#ffd63a" stroke-opacity="0.5" stroke-width="2" stroke-linecap="round" stroke-linejoin="round"/>
<path d="M108.712 282.581C111.376 288.775 115.302 299.246 123.386 293.485C127.101 290.838 125.255 286.308 121.588 284.869C112.601 281.343 101.276 291.189 99.0347 299.282C96.7938 307.374 105.64 309.855 111.725 310.654C115.092 311.096 114.337 308.218 117.234 307.216" stroke="#ffd63a" stroke-opacity="0.5" stroke-width="2" stroke-linecap="round" stroke-linejoin="round"/>
<path d="M131.095 303.997C124.113 301.082 114.864 298.483 110.93 307.405C109.033 311.705 117.52 312.209 120.038 312.091C124.846 311.865 135.552 300.735 131.945 303.922C128.779 306.719 125.576 310.02 124.274 314.15C123.434 316.817 124.399 322.711 127.492 318.641" stroke="#ffd63a" stroke-opacity="0.5" stroke-width="2" stroke-linecap="round" stroke-linejoin="round"/>
<path d="M158.244 309.579C148.111 310.551 136.102 311.06 132.507 322.445C130.74 328.041 134.886 331.933 139.882 333.575C143.373 334.723 146.932 332.231 149.05 329.703" stroke="#ffd63a" stroke-opacity="0.5" stroke-width="2" stroke-linecap="round" stroke-linejoin="round"/>
<path d="M167.448 311.123C166.892 311.799 141.931 339.004 153.829 339.214C157.124 339.273 160.505 337.356 162.773 335.201" stroke="#ffd63a" stroke-opacity="0.5" stroke-width="2" stroke-linecap="round" stroke-linejoin="round"/>
<path d="M146.305 316.073C151.098 319.378 155.823 322.877 161.08 325.432C162.445 326.096 164.72 326.412 165.66 327.788C166.188 328.561 165.358 326.725 165.266 326.458" stroke="#ffd63a" stroke-opacity="0.5" stroke-width="2" stroke-linecap="round" stroke-linejoin="round"/>
<path d="M92.8483 98.255C96.8701 105.133 109.642 125.199 104.457 119.15C101.143 115.283 98.6254 110.151 96.524 105.576C94.3189 100.776 92.2483 92.2106 100.651 92.6454C107.864 93.0185 110.743 100.384 112.012 106.421C112.571 109.084 112.714 111.153 113.909 113.575C115.13 116.052 115.198 106.509 115.662 104.033" stroke="#ffd63a" stroke-opacity="0.5" stroke-width="2" stroke-linecap="round" stroke-linejoin="round"/>
<path d="M118.833 84.2668C119.057 85.3074 122.533 109.092 127.579 104.518C129.704 102.592 130.171 97.8441 130.444 95.2433C131.296 87.114 127.862 86.1101 122.155 84.3897C119.433 83.569 118.875 83.6062 118.127 86.4088C116.592 92.164 119.012 90.5469 122.113 87.3466" stroke="#ffd63a" stroke-opacity="0.5" stroke-width="2" stroke-linecap="round" stroke-linejoin="round"/>
<path d="M140.773 77.5573C137.97 82.2819 134.395 87.8398 136.367 93.6271C137.185 96.0276 139.088 95.3934 140.421 94.042C142.524 91.9093 143.621 88.4041 143.504 85.4754C143.28 79.861 139.763 75.0566 136.072 71.0676C135.561 70.5145 130.9 66.6725 131.813 69.9712C133.452 75.8962 138.015 81.5954 141.194 86.745C146.434 95.2324 148.041 91.9365 150.395 83.9694" stroke="#ffd63a" stroke-opacity="0.5" stroke-width="2" stroke-linecap="round" stroke-linejoin="round"/>
<path d="M150.893 79.0262C152.633 80.6486 166.363 90.4558 166.789 81.7568C166.827 80.9675 165.821 80.7212 165.49 80.0486C164.635 78.3156 163.219 77.1725 162.449 76.2635" stroke="#ffd63a" stroke-opacity="0.5" stroke-width="2" stroke-linecap="round" stroke-linejoin="round"/>
<path d="M152.038 84.9205C146.602 77.7818 139.008 70.3595 146.792 63.302C150.072 60.3282 156.878 62.6797 156.7 67.6483C156.617 69.9624 156.129 75.6847 152.805 76.2889C151.048 76.6084 150.238 75.4576 151.863 73.8499" stroke="#ffd63a" stroke-opacity="0.5" stroke-width="2" stroke-linecap="round" stroke-linejoin="round"/>
<path d="M164.448 55.3129C167.963 57.5493 193.008 72.3501 179.89 78.8194C177.845 79.8276 176.046 77.4778 174.959 75.966C172.509 72.5577 179.647 67.7227 179.944 64.1126" stroke="#ffd63a" stroke-opacity="0.5" stroke-width="2" stroke-linecap="round" stroke-linejoin="round"/>
<path d="M185.005 43.4142C182.959 45.0849 171.225 55.4619 180.452 57.4683C185.549 58.5765 190.366 53.4977 194.24 50.9626C200.48 46.8787 201.798 54.7372 200.083 59.1727C199.033 61.8891 190.266 70.7785 192.665 63.7115" stroke="#ffd63a" stroke-opacity="0.5" stroke-width="2" stroke-linecap="round" stroke-linejoin="round"/>
<path d="M254.261 429.65C246.455 433.578 236.226 440.742 244.665 450.247C248.713 454.807 256.186 452.939 261.517 452.412C263.015 452.264 267.148 453.705 266.023 452.705C263.589 450.542 261.838 450.681 261.108 447.029" stroke="#ffd63a" stroke-opacity="0.5" stroke-width="2" stroke-linecap="round" stroke-linejoin="round"/>
<path d="M277.434 427.016C277.434 432.771 277.38 436.891 283.285 439.129C285.835 440.096 287.436 440.983 288.113 443.84C288.878 447.069 286.625 451.747 283.958 453.553C280.661 455.786 276.52 456.565 272.811 455.045C269.634 453.744 273.146 452.204 274.8 450.715" stroke="#ffd63a" stroke-opacity="0.5" stroke-width="2" stroke-linecap="round" stroke-linejoin="round"/>
<path d="M303.239 420.697C302.203 424.71 297.534 435.443 301.688 439.597C303.365 441.274 306.612 440.343 308.68 440.826C310.738 441.307 312.503 442.882 313.771 444.513C315.779 447.094 313.868 451.006 311.548 452.822C307.948 455.639 302.806 454.402 298.616 454.402C296.328 454.402 297.891 454.24 299.025 452.822" stroke="#ffd63a" stroke-opacity="0.5" stroke-width="2" stroke-linecap="round" stroke-linejoin="round"/>
<path d="M294.16 370.752C298.217 369.204 305.742 366.74 309.666 363.964C313.809 361.034 309.472 360.192 307.267 360.892C303.533 362.079 301.277 365.99 300.011 369.436C296.679 378.507 307.279 388.761 316.191 387.722C324.426 386.761 325.575 382.729 326.811 376.545" stroke="#ffd63a" stroke-opacity="0.5" stroke-width="2" stroke-linecap="round" stroke-linejoin="round"/>
<path d="M332.078 366.012C331.155 367.515 322.39 385.561 319.965 377.072" stroke="#ffd63a" stroke-opacity="0.5" stroke-width="2" stroke-linecap="round" stroke-linejoin="round"/>
<path d="M315.752 366.539C319.45 371.482 328.384 389.156 337.344 388.658C338.644 388.586 336.92 383.583 336.818 382.865" stroke="#ffd63a" stroke-opacity="0.5" stroke-width="2" stroke-linecap="round" stroke-linejoin="round"/>
<path d="M339.977 366.539C342.02 378.506 346.112 414.674 343.781 402.76C342.579 396.617 331.603 363.374 341.265 364.754C345.455 365.353 356.151 371.466 353.348 377.072C351.772 380.224 342.005 381.324 346.297 379.178" stroke="#ffd63a" stroke-opacity="0.5" stroke-width="2" stroke-linecap="round" stroke-linejoin="round"/>
<path d="M359.99 374.965C361.291 381.736 362.543 388.502 363.676 395.299C363.87 396.463 363.61 395.504 363.267 394.861C361.113 390.821 358.163 383.623 358.264 379.091C358.359 374.797 364.266 371.869 367.363 374.965" stroke="#ffd63a" stroke-opacity="0.5" stroke-width="2" stroke-linecap="round" stroke-linejoin="round"/>
<path d="M376.843 382.865C376.706 387.821 380.301 405.172 388.838 400.127C390.061 399.404 393.079 397.638 393.168 396.031C393.216 395.174 391.657 394.978 391.062 394.978C389.497 394.978 389.106 393.037 388.429 391.818" stroke="#ffd63a" stroke-opacity="0.5" stroke-width="2" stroke-linecap="round" stroke-linejoin="round"/>
<path d="M374.209 384.445C378.822 379.673 384.01 373.099 388.107 381.607C389.306 384.098 388.888 387.099 387.902 389.594C386.308 393.625 380.601 395.215 382.109 389.185" stroke="#ffd63a" stroke-opacity="0.5" stroke-width="2" stroke-linecap="round" stroke-linejoin="round"/>
<path d="M402.648 374.965C406.257 380.733 420.855 396.281 411.279 403.375C408.215 405.644 406.215 405.634 402.765 405.51C397.894 405.336 400.468 404.102 402.121 400.244" stroke="#ffd63a" stroke-opacity="0.5" stroke-width="2" stroke-linecap="round" stroke-linejoin="round"/>
<path d="M424.766 372.859C423.676 374.178 409.594 387.792 418.154 389.243C421.309 389.778 424.209 387.867 427.107 389.799C432.336 393.285 431.097 398.01 426.288 400.975C423.884 402.458 421.202 403.235 418.681 404.457C417.256 405.148 418.774 403.147 418.973 402.351" stroke="#ffd63a" stroke-opacity="0.5" stroke-width="2" stroke-linecap="round" stroke-linejoin="round"/>
<path d="M412.654 367.066C411.431 367.964 398.264 375.271 400.132 379.705C402.487 385.299 403.266 378.413 403.701 376.019" stroke="#ffd63a" stroke-opacity="0.5" stroke-width="2" stroke-linecap="round" stroke-linejoin="round"/>
<path d="M88.9711 194.793C91.3166 189.263 90.3559 184.444 90.3559 178.712C90.3559 177.597 90.1536 174.201 91.3254 173.593C93.1732 172.634 94.9001 171.994 97.0803 171.994C98.5298 171.994 99.9861 172.036 101.435 171.994C102.884 171.953 104.288 171.363 105.72 171.188C108.386 170.861 111.159 171.316 113.791 171.316C115.881 171.316 118.043 171.587 120.054 171.587C120.411 171.587 121.866 171.757 122.1 171.964C122.818 172.597 122.612 173.612 123.178 174.166" stroke="#ffd63a" stroke-opacity="0.5" stroke-linecap="round" stroke-linejoin="round"/>
<path d="M123.04 174.656C123.131 176.288 123.165 178.578 123.837 180.173C124.272 181.206 123.925 182.582 124.013 183.683C124.182 185.795 123.867 187.855 123.867 189.905C123.867 192.654 124.005 195.369 124.005 198.104C124.005 200.451 121.712 200.058 119.898 199.728C118.331 199.443 116.228 200.015 114.595 200.035C111.445 200.074 108.28 200.311 105.124 200.311C102.489 200.311 100.532 199.545 98.1051 198.625C96.8092 198.133 96.0259 198.242 94.6339 198.242C93.3155 198.242 92.2314 198.036 90.9098 198.449C90.1366 198.69 88.7519 198.482 88.3121 197.69C87.7848 196.741 88.8332 196.329 88.8332 195.552C88.8332 194.9 88.7512 193.034 88.9711 194.794" stroke="#ffd63a" stroke-opacity="0.5" stroke-linecap="round" stroke-linejoin="round"/>
<path d="M104.695 178.242C104.695 178.242 105.247 178.518 105.799 179.07C106.35 179.483 107.512 179.276 108.488 179.276C109.002 179.276 109.545 178.876 110.005 178.671C110.939 178.256 110.382 179.037 110.159 179.483C109.911 179.978 110.194 180.898 110.641 181.208C111.38 181.719 112.111 181.277 112.833 180.916C113.133 180.766 113.051 180.697 113.143 180.901C113.269 181.178 113.247 181.58 113.247 181.882C113.247 182.569 113.202 183.712 112.833 184.311C112.348 185.099 111.858 185.609 111.078 186.188C110.308 186.761 109.29 187.759 108.266 187.759C106.265 187.759 104.141 187.323 103.14 185.376C102.715 184.551 101.937 183.875 101.937 182.932C101.937 182.144 101.676 181.201 101.937 180.449C102.252 179.537 103.04 178.671 102.764 178.671C102.905 178.711 104.143 177.966 104.695 178.242Z" stroke="#ffd63a" stroke-opacity="0.5" stroke-linecap="round" stroke-linejoin="round"/>
<path d="M106.971 177.759C107.747 177.472 109.519 176.87 109.936 175.932C110.259 175.206 109.193 175.07 108.626 175.07C107.938 175.07 107.123 176.02 106.94 176.621C106.839 176.956 106.742 177.298 106.642 177.637C106.593 177.8 106.658 177.918 106.691 178.07C106.717 178.185 107.769 177.632 107.73 177.474" stroke="#ffd63a" stroke-opacity="0.5" stroke-linecap="round" stroke-linejoin="round"/>
<path d="M120.908 193.273L90.3696 193.944C87.1392 194.015 84.5574 196.654 84.5574 199.885C84.5574 203.167 87.218 205.828 90.5002 205.828H121.04C124.353 205.828 127.04 203.142 127.04 199.828V199.272C127.04 195.906 124.272 193.199 120.908 193.273Z" stroke="#ffd63a" stroke-opacity="0.5"/>
<path d="M97.0588 193.777C97.5169 194.487 97.9124 195.34 98.438 195.997C98.7024 196.327 98.66 196.26 99.1725 196.07C100.028 195.753 100.997 195.981 101.89 195.981C102.674 195.981 103.585 195.571 104.347 195.777C105.229 196.014 106.269 195.561 107.138 195.54C108.184 195.515 109.182 195.613 110.222 195.613C110.85 195.613 111.461 195.246 112.042 195.246C112.379 195.246 113.34 195.513 113.364 194.895C113.376 194.594 113.511 194.302 113.511 193.997C113.511 193.586 113.265 193.764 112.85 193.557" stroke="#ffd63a" stroke-opacity="0.5" stroke-linecap="round" stroke-linejoin="round"/>
<path d="M246.48 43.0062C247.046 42.2862 248.131 40.9538 246.611 40.7182C246.267 40.6649 245.945 40.4628 245.608 40.6158C244.568 41.0869 243.602 42.1242 243.602 43.3575C243.602 45.3274 245.763 45.7539 247.332 45.7284C249.98 45.6854 250.786 43.1056 251.721 41.0158C252.666 38.9049 253.715 36.8281 254.695 34.7323C255.804 32.3608 257.623 30.4717 258.774 28.1219C259.267 27.1143 259.911 26.227 260.547 25.307C261.532 23.8799 262.235 22.4402 262.94 20.8578C263.518 19.5596 264.159 18.3741 264.867 17.1453C265.154 16.6484 265.046 15.8871 265.594 16.4184C266.01 16.8217 266.672 17.0867 267.231 17.1892C269.678 17.6373 271.929 18.1116 274.449 17.9112C276.998 17.7085 279.545 17.3434 282.054 16.8574C282.907 16.6922 282.543 16.8911 282.141 17.4087C281.459 18.2866 280.876 19.217 280.223 20.1065C279.371 21.2666 279.071 22.6636 278.566 23.9898C278.012 25.4477 277.352 26.8402 276.822 28.3219C275.799 31.1856 274.306 33.7972 272.458 36.2007C271.387 37.5936 270.065 40.0264 268.06 39.9279C264.957 39.7755 267.052 33.6678 268.534 32.4735C269.332 31.8306 270.205 32.5228 270.302 33.3858C270.436 34.5717 270.029 36.1967 268.878 36.7764C267.664 37.388 266.733 37.3146 267.667 35.7373C268.233 34.7829 268.569 35.8332 268.801 35.3665" stroke="#ffd63a" stroke-opacity="0.5" stroke-width="2" stroke-linecap="round" stroke-linejoin="round"/>
<path d="M480.308 255.769C480.874 255.048 481.959 253.716 480.439 253.481C480.095 253.427 479.773 253.225 479.436 253.378C478.396 253.849 477.431 254.887 477.431 256.12C477.431 258.09 479.591 258.516 481.16 258.491C483.808 258.448 484.614 255.868 485.549 253.778C486.494 251.667 487.543 249.59 488.523 247.495C489.632 245.123 491.451 243.234 492.602 240.884C493.095 239.877 493.74 238.989 494.375 238.069C495.36 236.642 496.063 235.202 496.768 233.62C497.346 232.322 497.987 231.136 498.696 229.908C498.982 229.411 498.874 228.649 499.422 229.181C499.838 229.584 500.5 229.849 501.059 229.951C503.507 230.4 505.757 230.874 508.277 230.673C510.826 230.471 513.373 230.106 515.882 229.62C516.735 229.455 516.371 229.653 515.969 230.171C515.287 231.049 514.705 231.979 514.051 232.869C513.199 234.029 512.899 235.426 512.394 236.752C511.84 238.21 511.18 239.602 510.651 241.084C509.627 243.948 508.134 246.56 506.286 248.963C505.215 250.356 503.893 252.789 501.888 252.69C498.785 252.538 500.88 246.43 502.363 245.236C503.16 244.593 504.033 245.285 504.131 246.148C504.264 247.334 503.858 248.959 502.706 249.539C501.492 250.15 500.561 250.077 501.495 248.5C502.061 247.545 502.397 248.596 502.629 248.129" stroke="#ffd63a" stroke-opacity="0.5" stroke-width="2" stroke-linecap="round" stroke-linejoin="round"/>
<path d="M455.306 131.664C452.71 126.959 452.863 125.615 453.455 120.879C453.781 118.272 453.906 115.723 454.565 113.158C455.745 108.57 456.128 102.391 452.434 98.6972C445.165 91.4282 431.628 101.766 435.727 110.988C437.287 114.498 439.983 117.097 441.93 120.407C442.711 121.735 443.148 123.174 444.164 124.415C445.137 125.605 446.346 127.086 446.346 128.563C446.346 129.811 445.974 131.429 446.857 132.532C448.076 134.056 447.642 133.272 449.447 133.272C450.688 133.272 452.518 132.286 453.519 131.486C454.233 130.914 454.617 132.567 454.617 130.975C454.617 129.608 454.177 130.745 455.076 130.745" stroke="#ffd63a" stroke-opacity="0.5" stroke-linecap="round" stroke-linejoin="round"/>
<path d="M449.562 136.029C452.019 135.297 458.819 133.661 457.245 135.685C455.346 138.126 454.534 136.903 452.204 137.421C451.012 137.685 449.851 141.363 451.17 141.441C453.055 141.552 454.305 139.016 456.224 139.016C457.972 139.016 457.846 141.315 456.799 142.13C455.415 143.206 453.824 142.05 452.893 143.726C451.422 146.374 455.441 145.943 456.582 145.321C457.731 144.694 458.824 143.715 459.67 143.151" stroke="#ffd63a" stroke-opacity="0.5" stroke-linecap="round" stroke-linejoin="round"/>
<path d="M455.306 130.918C455.275 131.118 455.242 132.468 454.703 132.468C454.412 132.468 454.279 132.292 454.014 132.44C453.702 132.613 453.409 133.021 453.111 133.26C452.848 133.47 452.067 133.444 451.917 133.706C451.672 134.135 451.175 134.37 450.711 134.421C450.109 134.488 449.887 134.79 449.246 134.648C449.051 134.604 449.031 134.479 448.848 134.479C448.565 134.479 448.442 134.614 448.229 134.377C447.992 134.114 447.606 133.991 447.492 133.592C447.337 133.049 446.768 132.764 447.61 133.1" stroke="#ffd63a" stroke-opacity="0.5" stroke-linecap="round" stroke-linejoin="round"/>
<path d="M444.221 108.174C445.249 108.179 446.098 108.246 446.448 109.335C446.686 110.077 446.691 110.805 446.691 111.575C446.691 112.324 446.231 112.926 446.231 113.63C446.231 114.561 446.976 114.409 447.606 114.693C448.202 114.961 448.633 115.184 448.956 115.784C449.276 116.377 449.034 117.525 448.991 118.171C448.954 118.726 448.69 119.906 449.074 120.375C449.283 120.63 450.423 121.024 449.677 120.465" stroke="#ffd63a" stroke-opacity="0.5" stroke-linecap="round" stroke-linejoin="round"/>
<path d="M435.548 118.569C434.725 119.116 433.887 119.574 432.967 119.919C432.581 120.064 432.073 120.322 432.16 119.718" stroke="#ffd63a" stroke-opacity="0.5" stroke-linecap="round" stroke-linejoin="round"/>
<path d="M432.562 110.643C431.104 110.995 429.655 111.39 428.21 111.779C427.969 111.844 428.521 111.236 428.542 111.218" stroke="#ffd63a" stroke-opacity="0.5" stroke-linecap="round" stroke-linejoin="round"/>
<path d="M432.16 103.12C430.65 102.9 429.144 102.628 427.642 102.36C426.95 102.237 426.657 102.328 427.048 101.741" stroke="#ffd63a" stroke-opacity="0.5" stroke-linecap="round" stroke-linejoin="round"/>
<path d="M440.315 95.1362C439.122 94.9266 438.088 94.7245 437.01 94.1854C436.505 93.933 436.019 93.6297 435.491 93.426C434.863 93.1839 434.85 93.2576 435.548 92.8389" stroke="#ffd63a" stroke-opacity="0.5" stroke-linecap="round" stroke-linejoin="round"/>
<path d="M450.711 89.9672C450.885 91.1862 450.828 91.9162 450.335 93.0208C450.069 93.6162 449.844 94.3688 449.713 95.0118C449.667 95.2332 449.642 95.3593 449.492 95.5255C449.436 95.5877 449.642 94.848 449.677 94.7342" stroke="#ffd63a" stroke-opacity="0.5" stroke-linecap="round" stroke-linejoin="round"/>
<path d="M459.498 94.8491C459.117 96.1185 458.574 97.3362 458.248 98.6078C458.083 99.2511 458.186 99.2902 458.465 98.6397" stroke="#ffd63a" stroke-opacity="0.5" stroke-linecap="round" stroke-linejoin="round"/>
<path d="M463.174 103.981C461.869 105.11 460.799 106.512 459.786 107.899C459.659 108.073 459.512 108.135 459.371 108.276C459.051 108.596 459.603 107.873 459.671 107.772" stroke="#ffd63a" stroke-opacity="0.5" stroke-linecap="round" stroke-linejoin="round"/>
<path d="M170.734 219.189C172.644 227.791 174.794 236.412 176.057 245.144C176.763 250.022 175.213 242.983 175.021 241.988C174.604 239.834 174.126 237.926 174.126 235.723C174.126 231.29 174.007 226.807 173.678 222.369C173.448 219.262 169.632 210.011 174.455 217.729C179.374 225.598 182.846 234.299 186.185 242.883C186.645 244.066 187.282 245.187 187.786 246.322C188.062 246.942 182.899 241.896 180.909 240.811" stroke="#ffd63a" stroke-opacity="0.5" stroke-width="2" stroke-linecap="round" stroke-linejoin="round"/>
<path d="M167.766 238.267C173.278 236.067 185.431 231.919 188.964 225.737C190.444 223.147 190.156 224.344 185.996 225.124" stroke="#ffd63a" stroke-opacity="0.5" stroke-width="2" stroke-linecap="round" stroke-linejoin="round"/>
<path d="M184.301 209.438C188.554 217.858 191.635 226.824 192.803 236.171C192.911 237.037 193.112 237.987 193.722 238.597C193.835 238.71 191.682 234.679 191.084 233.603" stroke="#ffd63a" stroke-opacity="0.5" stroke-width="2" stroke-linecap="round" stroke-linejoin="round"/>
<path d="M184.301 209.014C187.599 210.99 199.713 218.287 191.814 222.934C191.121 223.342 190.308 223.718 189.812 224.371C188.762 225.752 188.636 226.157 189.388 224.276" stroke="#ffd63a" stroke-opacity="0.5" stroke-width="2" stroke-linecap="round" stroke-linejoin="round"/>
<path d="M195.323 204.775C196.728 214.293 199.139 224.752 199.139 234.451C199.139 236.592 198.781 232.627 198.291 231.484" stroke="#ffd63a" stroke-opacity="0.5" stroke-width="2" stroke-linecap="round" stroke-linejoin="round"/>
<path d="M205.074 221.733C207.402 228.671 208.598 232.76 201.777 234.781C199.446 235.472 202.262 232.086 202.86 231.672C204.901 230.259 206.933 225.711 204.65 223.428C203.742 222.52 201.568 223.667 200.929 222.581C199.986 220.979 202.098 217.945 203.378 217.163C207.059 214.914 206.596 218.084 205.074 217.069" stroke="#ffd63a" stroke-opacity="0.5" stroke-width="2" stroke-linecap="round" stroke-linejoin="round"/>
<path d="M332.425 92.985C333.831 100.379 339.616 121.97 336.25 115.238C335.888 114.513 335.585 113.898 335.555 113.075C335.442 110.03 335.215 106.847 334.164 103.957C333.285 101.54 333.469 99.0341 333.469 96.462C333.469 95.9468 332.593 91.8924 332.677 91.8646C333.562 91.5696 337.213 96.0063 337.873 96.7711C341.211 100.639 344.586 105.084 346.971 109.617C348.199 111.95 348.569 112.786 345.638 113.152" stroke="#ffd63a" stroke-opacity="0.5" stroke-width="2" stroke-linecap="round" stroke-linejoin="round"/>
<path d="M332.078 107.936C335.341 106.281 338.449 104.958 341.814 103.764" stroke="#ffd63a" stroke-opacity="0.5" stroke-width="2" stroke-linecap="round" stroke-linejoin="round"/>
<path d="M341.466 93.3327C344.807 98.3374 347.989 103.663 351.878 108.284C352.433 108.943 353.597 110.14 353.597 108.593C353.597 106.482 352.428 104.3 351.897 102.296C351.049 99.0899 350.259 95.8691 349.541 92.6373C348.847 89.5174 349.336 90.6823 350.507 93.0236C352.447 96.9035 354.489 100.437 357.19 103.88C359.01 106.199 359.199 104.908 359.199 102.875C359.199 99.1839 357.397 96.1484 356.07 92.8304C354.652 89.2862 354.747 84.4479 353.134 81.2208C352.506 79.9658 352.419 83.9431 352.245 85.3354" stroke="#ffd63a" stroke-opacity="0.5" stroke-width="2" stroke-linecap="round" stroke-linejoin="round"/>
<path d="M360.242 80.8151C360.331 81.2235 361.626 91.3467 363.913 90.2033C364.915 89.7023 365.16 88.1693 366.192 87.6534C367.864 86.8176 369.671 88.2979 370.326 89.7397C372.059 93.552 370.064 97.9674 366.926 100.287C362.579 103.5 364.067 97.7156 364.067 96.1143" stroke="#ffd63a" stroke-opacity="0.5" stroke-width="2" stroke-linecap="round" stroke-linejoin="round"/>
<path d="M362.329 80.1197C361.703 81.8296 360.565 89.7685 360.223 86.6876C360.012 84.7858 360.387 83.3397 360.59 81.5106C361.072 77.1715 364.393 80.662 363.024 78.3812" stroke="#ffd63a" stroke-opacity="0.5" stroke-width="2" stroke-linecap="round" stroke-linejoin="round"/>
<path d="M339.14 308.508C339.024 308.295 334.008 299.657 334.442 299.408C335.044 299.064 336.167 299.399 336.876 299.133C338.969 298.348 340.655 296.728 342.378 295.388C344.19 293.978 346.672 305.036 347.224 307.365C347.891 310.183 349.629 313.929 346.377 315.555C343.446 317.021 339.589 316.578 336.389 316.507C331.168 316.391 327.56 307.821 326.951 303.556C326.507 300.451 322.207 290.483 326.824 288.489C328.06 287.955 330.16 288.32 331.501 288.32C333.419 288.32 335.094 287.177 337.045 287.177C340.149 287.177 341.088 291.055 338.378 286.796" stroke="#ffd63a" stroke-opacity="0.5" stroke-width="2" stroke-linecap="round" stroke-linejoin="round"/>
<path d="M347.901 289.843C348.442 291.815 350.183 302.762 354.757 299.959C355.628 299.425 356.261 298.131 356.577 297.208C357.42 294.742 357.597 292.683 355.709 290.796C354.295 289.381 351.564 286.494 349.509 286.415C344.413 286.219 348.909 291.927 348.282 290.986" stroke="#ffd63a" stroke-opacity="0.5" stroke-width="2" stroke-linecap="round" stroke-linejoin="round"/>
<path d="M348.663 272.321C352.425 278.27 358.102 284.812 360.386 291.663C360.677 292.537 360.688 293.131 361.233 293.949C362.055 295.182 362.444 296.972 363.222 295.091C364.349 292.368 366.917 289.951 368.936 287.854C371.426 285.268 371.767 286.034 367.327 286.034" stroke="#ffd63a" stroke-opacity="0.5" stroke-width="2" stroke-linecap="round" stroke-linejoin="round"/>
<path d="M374.946 270.417C374.473 271.484 367.297 285.685 374.226 282.458C375.605 281.816 377.011 280.817 376.829 279.178C376.653 277.598 375.334 276.356 374.649 274.988C374.263 274.214 372.717 270.489 373.253 271.559C374.844 274.741 376.98 280.408 379.347 282.775C382.105 285.533 383.757 282.635 381.04 281.082" stroke="#ffd63a" stroke-opacity="0.5" stroke-width="2" stroke-linecap="round" stroke-linejoin="round"/>
<path d="M379.136 271.94C389.738 288.758 376.322 269.888 379.411 266.586C382.4 263.391 385.931 269.527 387.05 271.475C388.999 274.868 390.918 283.671 387.897 274.607" stroke="#ffd63a" stroke-opacity="0.5" stroke-width="2" stroke-linecap="round" stroke-linejoin="round"/>
<path d="M392.468 257.466C392.288 258.101 386.601 274.105 390.859 272.618C392.669 271.986 394.486 270.555 395.451 268.914C396.565 267.02 397.084 264.423 396.277 262.333C395.726 260.908 395.131 259.386 394.372 258.058C392.569 254.904 397.428 264.652 398.88 267.983C401.006 272.86 406.128 289.959 394.055 286.563C388.789 285.082 393.748 276.892 393.229 276.892" stroke="#ffd63a" stroke-opacity="0.5" stroke-width="2" stroke-linecap="round" stroke-linejoin="round"/>
<path d="M242.549 178.765C244.442 178.245 246.056 177.721 247.387 176.223C247.912 175.633 247.983 174.879 248.251 174.164C248.6 173.235 248.166 172.046 247.868 171.154C247.631 170.441 248.93 170.041 249.394 170.011C250.191 169.96 250.801 170.467 251.567 170.512C252.488 170.566 253.47 170.861 254.109 171.58C254.542 172.067 255.123 172.182 255.602 172.605C256.057 173.006 256.416 173.706 256.745 174.22C257.697 175.707 257.966 177.442 258.243 179.143C258.375 179.959 258.456 180.846 258.318 181.67C258.154 182.654 258.329 183.6 257.94 184.543C257.672 185.194 257.243 186.057 256.632 186.442C256.005 186.837 255.422 186.979 255.262 187.798C254.927 189.508 255.786 191.183 255.455 192.909C255.162 194.442 253.136 194.676 251.884 194.922C251.019 195.091 249.448 195.356 248.615 194.903C247.063 194.059 245.939 193.005 244.788 191.662C243.769 190.472 243.383 188.733 243.248 187.212C243.111 185.659 243.109 183.973 243.144 182.403C243.167 181.361 243.471 180.314 243.569 179.275C243.65 178.425 243.92 178.357 243.484 179.445" stroke="#ffd63a" stroke-opacity="0.5" stroke-linecap="round" stroke-linejoin="round"/>
<path d="M253.519 171.027C254.158 169.378 254.861 167.73 255.352 166.029C255.572 165.265 255.625 164.455 255.9 163.709C256.219 162.842 256.377 161.862 256.514 160.955C256.612 160.305 256.66 159.154 257.255 158.744C257.69 158.445 257.938 157.762 258.403 157.402C259.001 156.941 259.851 156.512 260.274 155.895C260.69 155.29 261.134 154.04 260.784 153.34C260.59 152.951 260.617 152.532 260.425 152.149C260.176 151.651 259.952 151.247 259.764 150.708C259.599 150.237 259.08 149.295 259.684 148.96C261.159 148.141 261.262 149.431 261.72 150.609C261.956 151.218 261.992 151.961 262.211 152.593C262.361 153.026 262.627 152.713 262.83 152.962C263.136 153.336 263.151 153.804 263.383 154.209C263.729 154.815 263.322 156.044 263.146 156.637C262.821 157.735 262.486 158.729 262.003 159.783C260.76 162.499 258.734 164.786 257.345 167.418C256.816 168.419 256.393 169.428 256.136 170.536C255.989 171.165 255.559 171.765 255.559 172.43C255.559 173.037 255.409 173.348 255.729 172.387" stroke="#ffd63a" stroke-opacity="0.5" stroke-linecap="round" stroke-linejoin="round"/>
<path d="M260.151 150.534C259.068 150.7 257.887 150.763 256.92 151.247C256.787 151.313 256.993 151.14 257.09 151.129C258.386 150.976 259.802 149.82 260.983 149.258C261.861 148.84 263.062 147.898 264.063 147.898C264.353 147.898 263.099 148.705 262.957 148.833" stroke="#ffd63a" stroke-opacity="0.5" stroke-linecap="round" stroke-linejoin="round"/>
<path d="M259.046 152.404C260.251 151.704 262.35 150.944 263.231 149.768C263.317 149.654 263.38 149.5 263.505 149.428C263.943 149.178 263.169 149.457 263.042 149.513" stroke="#ffd63a" stroke-opacity="0.5" stroke-linecap="round" stroke-linejoin="round"/>
<path d="M259.896 153.51C261.342 152.956 263.986 152.464 264.781 150.874C264.896 150.644 264.641 150.704 264.488 150.704" stroke="#ffd63a" stroke-opacity="0.5" stroke-linecap="round" stroke-linejoin="round"/>
<path d="M261.427 153.34C261.334 155.29 261.354 157.273 260.241 158.943C259.698 159.757 259.322 160.299 259.131 161.253C258.927 162.272 258.703 163.123 258.238 164.054C257.779 164.972 257.24 165.724 256.788 166.605C256.553 167.062 255.976 167.502 256.088 168.051C256.145 168.328 256.008 168.576 255.918 168.835C255.653 169.603 255.156 170.279 254.69 170.942C254.374 171.392 254.378 172.2 254.794 171.367" stroke="#ffd63a" stroke-opacity="0.5" stroke-linecap="round" stroke-linejoin="round"/>
<path d="M254.539 169.071C255.306 169.238 256.473 169.751 257.26 169.751C257.274 169.751 256.591 168.927 256.495 168.816" stroke="#ffd63a" stroke-opacity="0.5" stroke-linecap="round" stroke-linejoin="round"/>
<path d="M255.049 165.585C256.134 166.048 257.221 166.507 258.299 166.988C258.552 167.1 258.537 167.117 258.45 167.03C258.264 166.843 258.105 166.641 257.94 166.435" stroke="#ffd63a" stroke-opacity="0.5" stroke-linecap="round" stroke-linejoin="round"/>
<path d="M256.07 163.289C257.377 163.695 258.682 164.133 260.005 164.489C260.153 164.529 260.36 164.608 260.217 164.46C259.932 164.165 259.604 163.905 259.301 163.629" stroke="#ffd63a" stroke-opacity="0.5" stroke-linecap="round" stroke-linejoin="round"/>
<path d="M256.75 160.398C258.238 161.125 259.72 161.909 261.247 162.557C261.498 162.663 261.582 162.741 261.531 162.542C261.461 162.273 261.357 162.018 261.257 161.758" stroke="#ffd63a" stroke-opacity="0.5" stroke-linecap="round" stroke-linejoin="round"/>
<path d="M258.62 158.357C258.756 158.422 262.873 160.655 262.532 159.802" stroke="#ffd63a" stroke-opacity="0.5" stroke-linecap="round" stroke-linejoin="round"/>
<path d="M259.471 156.996C260.713 157.288 261.969 157.554 263.212 157.762" stroke="#ffd63a" stroke-opacity="0.5" stroke-linecap="round" stroke-linejoin="round"/>
<path d="M260.832 155.636C261.399 155.663 261.965 155.691 262.532 155.721" stroke="#ffd63a" stroke-opacity="0.5" stroke-linecap="round" stroke-linejoin="round"/>
<path d="M249.607 181.146C249.016 181.381 245.377 182.286 245.355 183.291C245.347 183.684 245.355 184.077 245.402 184.467C245.549 185.678 246.392 186.312 247.424 186.891C248.737 187.626 250.151 187.649 251.582 187.231C252.942 186.833 253.826 185.329 253.282 184.037C253.169 183.769 253.56 183.715 253.306 183.404C253.059 183.102 252.896 183.277 252.498 183.357" stroke="#ffd63a" stroke-opacity="0.5" stroke-linecap="round" stroke-linejoin="round"/>
<path d="M247.821 184.292C248.498 182.581 249.342 180.87 249.735 179.063C249.837 178.589 249.964 178.191 250.221 177.764C250.763 176.86 251.241 175.895 251.563 174.891C251.868 173.938 251.888 172.998 252.29 172.066C252.434 171.734 253.291 170.737 252.923 171.197" stroke="#ffd63a" stroke-opacity="0.5" stroke-linecap="round" stroke-linejoin="round"/>
<path d="M254.539 172.047C254.223 174.017 253.749 175.902 253.415 177.849C253.229 178.928 252.923 179.83 252.923 180.967C252.923 181.779 253.213 182.457 253.027 183.272C252.813 184.21 252.62 183.748 252.243 183.102" stroke="#ffd63a" stroke-opacity="0.5" stroke-linecap="round" stroke-linejoin="round"/>
<path d="M253.689 172.047C253.097 173.277 251.818 175.299 251.818 176.852C251.818 177.735 251.875 178.672 251.813 179.568C251.74 180.634 250.908 182.015 250.41 182.932C250.245 183.236 250.03 183.471 249.928 183.801C249.801 184.213 249.892 184.238 249.607 183.782" stroke="#ffd63a" stroke-opacity="0.5" stroke-linecap="round" stroke-linejoin="round"/>
<path d="M247.566 182.507C249.014 183.543 251.571 185.657 253.349 183.829C253.626 183.544 254.026 182.936 254.18 182.573C254.39 182.076 253.71 182.498 253.263 182.592" stroke="#ffd63a" stroke-opacity="0.5" stroke-linecap="round" stroke-linejoin="round"/>
<path d="M249.267 180.976C250.093 180.95 251.762 181.173 252.564 180.759C252.591 180.745 252.503 180.768 252.479 180.787C252.4 180.85 252.236 180.747 252.158 180.721" stroke="#ffd63a" stroke-opacity="0.5" stroke-linecap="round" stroke-linejoin="round"/>
<path d="M250.202 177.83C250.808 177.99 253.001 178.924 253.093 177.915" stroke="#ffd63a" stroke-opacity="0.5" stroke-linecap="round" stroke-linejoin="round"/>
<path d="M251.223 175.279C251.974 175.769 255.023 178.04 254.539 175.619" stroke="#ffd63a" stroke-opacity="0.5" stroke-linecap="round" stroke-linejoin="round"/>
<path d="M252.073 174.088C252.838 174.287 253.603 174.485 254.369 174.683" stroke="#ffd63a" stroke-opacity="0.5" stroke-linecap="round" stroke-linejoin="round"/>
<path d="M255.814 174.088C256.761 174.98 258.65 177.054 258.706 178.614C258.751 179.886 258.706 181.116 258.706 182.403C258.706 183.339 258.884 184.338 258.791 185.228C258.668 186.396 256.874 186.411 257.303 187.783C257.446 188.242 257.321 188.513 257.723 188.842C258.07 189.125 258.322 189.455 258.45 189.905C258.751 190.955 258.153 191.903 257.43 192.626C256.978 193.078 256.391 193.987 255.857 194.284C255.593 194.43 255.054 194.326 254.751 194.326C254.471 194.326 253.904 194.509 253.651 194.624C253.278 194.794 252.802 194.494 252.328 194.667" stroke="#ffd63a" stroke-opacity="0.5" stroke-linecap="round" stroke-linejoin="round"/>
<path d="M242.549 179.02C242.892 180.159 243.147 181.106 243.721 182.081C243.956 182.482 243.924 182.846 243.82 183.314C243.699 183.859 243.301 185.136 243.612 185.695C244.09 186.555 244.08 187.465 244.08 188.417C244.08 189.334 245.513 189.732 245.984 190.202C246.682 190.901 246.379 191.792 247.528 192.097C247.78 192.163 248.173 192.167 248.369 192.328C248.518 192.45 248.693 192.755 248.889 192.791C249.294 192.865 249.836 192.784 250.202 192.947C250.508 193.083 250.731 193.279 251.01 193.434C251.317 193.604 251.738 193.412 252.073 193.58C253.216 194.152 252.706 193.608 251.903 192.966" stroke="#ffd63a" stroke-opacity="0.5" stroke-linecap="round" stroke-linejoin="round"/>
<path d="M157.926 136.311C155.654 139.219 145.898 150.853 154.211 153.486C156.791 154.303 160.149 152.424 162.93 152.696C166.861 153.079 169.072 156.422 170.039 159.893C171.153 163.89 165.007 170.998 167.962 173.147C173.022 176.827 180.311 170.604 184.492 175.546C186.863 178.347 184.37 182.417 185.838 175.809" stroke="#ffd63a" stroke-opacity="0.5" stroke-linecap="round" stroke-linejoin="round"/>
<path d="M272.041 91.0205C274.231 93.9223 279.443 100.459 281.404 104.186C283.072 107.359 280.969 107.232 279.18 105.971C277.041 104.464 277.341 101.258 277.951 99.0371C280.013 91.5407 293.356 84.6489 294.862 96.1698C295.391 100.217 291.774 107.021 286.846 105.415C280.339 103.295 280.754 93.3654 285.675 89.6746C290.709 85.8995 298.958 90.2374 298.958 96.4039C298.958 103.25 290.821 105.37 287.665 99.3297C284.796 93.84 289.88 88.0974 295.33 87.2755C297.335 86.9732 302.514 89.2891 298.9 90.4938" stroke="#ffd63a" stroke-opacity="0.5" stroke-linecap="round" stroke-linejoin="round"/>
<path d="M382.109 143.158C378.698 146.546 367.921 154.447 376.988 157.523C382.264 159.313 387.149 156.379 390.418 152.374C394.025 147.955 394.637 140.966 388.896 138.096C384.432 135.864 380.584 132.278 376.842 137.891" stroke="#ffd63a" stroke-opacity="0.5" stroke-linecap="round" stroke-linejoin="round"/>
<path d="M498.496 189.502C491.984 193.381 482.096 198.066 492.176 201.732C493.726 202.295 494.735 201.928 496.097 200.971C501.136 197.43 501.432 196.012 501.129 190.555C500.929 186.942 495.645 187.768 493.23 188.975C489.668 190.756 487.183 194.321 485.74 197.928C483.798 202.782 493.835 202.485 495.219 196.641C496.087 192.977 491.896 187.773 489.017 192.252C485.201 198.187 491.023 203.494 494.693 197.285C498.207 191.337 489.995 188.884 487.788 195.822C484.885 204.944 502.139 195.039 495.863 191.901C492.122 190.031 485.806 201.908 492.703 198.952C501.078 195.363 491.708 190.073 491.708 198.455C491.708 205.257 502.958 195.385 495.629 192.72C493.953 192.111 492.299 197.466 493.493 198.66C495.569 200.736 499.178 195.359 498.994 193.423C498.202 185.112 490.067 206.241 499.754 196.553C501.967 194.34 501.876 190.34 498.204 192.691C496.036 194.078 494.665 199.966 498.759 198.601C502.692 197.29 502.691 190.007 498.467 191.696C495.889 192.728 494.955 196.377 492.176 195.822" stroke="#ffd63a" stroke-opacity="0.5" stroke-linecap="round" stroke-linejoin="round"/>
<path d="M441.619 243.746C440.532 244.946 423.179 266.357 431.905 255.449C433.901 252.954 435.735 250.5 438.459 248.749C440.139 247.669 441.756 247.003 443.199 245.56C444.776 243.983 442.54 244.087 442.175 247.374C441.857 250.236 442.1 262.733 441.619 262.705C438.366 262.514 436.233 259.312 433.222 258.258C431.609 257.693 426.826 258.506 428.16 257.438C431.422 254.829 441.413 247.346 438.459 250.3C436.221 252.537 431.623 260.947 433.193 258.199C434.309 256.245 437.329 249.879 436.879 250.943C435.953 253.136 434.342 256.893 434.48 259.311C434.611 261.606 439.17 255.958 439.454 255.39C441.567 251.164 437.195 260.668 438.752 258.404C440.154 256.364 444.895 251.179 441.502 256.268C440.759 257.382 445.016 252.244 444.252 253.342C444.03 253.661 442.101 256.898 443.228 255.771C447.266 251.733 441.316 255.931 440.566 254.805" stroke="#ffd63a" stroke-opacity="0.5" stroke-linecap="round" stroke-linejoin="round"/>
<path d="M406.334 331.168C408.178 328.543 418.712 316.961 410.05 316.451C408.586 316.365 405.567 315.89 404.345 316.89C401.438 319.269 402.698 325.685 406.627 326.399C411.837 327.346 416.719 320.222 411.074 317.475C405.176 314.606 391.254 326.131 397.264 330.875C409.097 340.217 419.797 313.07 404.491 316.978C390.607 320.523 402.838 334.823 409.143 325.609C415.893 315.744 395.079 315.659 398.756 326.692C400.57 332.133 406.523 329.507 407.592 325.112C409.16 318.668 402.751 321.329 402.648 325.785C402.537 330.56 409.894 321.92 405.486 322.303C402.3 322.58 401.986 326.955 399.488 326.955" stroke="#ffd63a" stroke-opacity="0.5" stroke-linecap="round" stroke-linejoin="round"/>
<path d="M196.732 281.664C197.795 286.489 199.891 301.088 199.891 296.146C199.891 292.735 197.286 289.552 196.761 286.14C196.577 284.948 196.956 281.422 195.942 280.611C195.248 280.056 201.806 285.16 203.549 286.14C206.729 287.929 209.009 291.271 211.77 287.72C213.096 286.016 216.996 285.78 217.534 285.35C221.434 282.231 221.076 277.575 221.981 273.501C222.304 272.048 221.484 278.462 221.484 280.347C221.484 282.759 221.919 285.953 222.566 288.218C223.485 291.434 223.117 282.357 222.244 280.611C220.826 277.774 220.957 275.257 220.957 272.184C220.957 270.971 229.761 286.179 228.213 287.34C227.566 287.825 218.945 285.447 216.334 286.287C214.085 287.01 212.031 287.853 209.898 288.92C209.314 289.211 208.352 290.273 208.727 289.973C210.064 288.903 214.155 285.979 212.531 286.521C210.299 287.265 208.108 289.424 206.094 290.617C202.299 292.866 201.07 292.552 199.482 296.41C199.253 296.966 202.086 296.895 202.642 297.053C206.627 298.192 209.132 295.088 212.648 293.66C217.186 291.816 222.404 288.03 227.277 287.457C230.955 287.024 225.362 285.734 225.17 285.35" stroke="#ffd63a" stroke-opacity="0.5" stroke-linecap="round" stroke-linejoin="round"/>
<path d="M397.908 78.9078C407.833 75.7262 423.908 72.067 432.783 64.8056C434.393 63.488 436.887 62.2249 436.323 59.6855C434.203 50.1454 429.59 47.908 420.495 48.9186C415.45 49.4792 410.608 54.1327 405.924 56.0283C401.103 57.9798 396.279 60.5438 391.881 63.3427C387.429 66.1755 390.008 67.5788 390.008 72.4711C390.008 75.1614 391.615 78.9078 394.485 78.9078C395.792 78.9078 399.542 77.8546 395.83 77.8546C392.918 77.8546 388.397 78.296 385.795 76.9183C383.808 75.8663 387.73 73.795 388.662 73.6707C391.991 73.2269 384.848 76.4829 384.127 76.7135C382.645 77.1879 389.476 72.011 385.678 73.2318C381.561 74.5552 387.671 71.0064 388.955 70.3646C390.404 69.6401 389.14 70.7871 389.482 70.189C390.028 69.2321 393.193 65.7164 390.33 68.5798C389.371 69.5385 392.494 66.9448 393.548 66.0929C395.535 64.4886 393.015 66.9227 392.524 67.3218C390.265 69.1605 389.736 67.6768 387.902 68.4921C387.135 68.8329 385.268 69.9632 385.268 68.6384C385.268 66.3526 393.333 65.3114 394.806 65.2445C403.827 64.8344 410.14 60.8553 418.447 58.7785C422.444 57.7791 426.813 56.3398 430.559 54.5654C433.338 53.2494 438.903 49.1292 441.853 49.9719C443.012 50.3031 425.129 60.7084 430.267 57.3156C434.517 54.5091 439.391 52.5383 433.017 57.813C427.911 62.0386 436.894 57.1166 437.611 57.4034C438.898 57.9185 429.681 63.183 436.704 59.9488C439.389 58.7119 441.619 58.6508 441.619 55.7357C441.619 51.7787 442.701 47.0887 437.669 48.9186C431.862 51.0303 427.201 55.5438 421.197 57.3156C417.058 58.537 413.025 60.0795 408.967 61.5287C404.258 63.2104 395.735 65.0908 392.378 69.1943C390.589 71.3811 387.402 79.9037 393.987 76.2161C400.028 72.8332 400.99 65.9889 404.227 60.5925C405.836 57.9121 401.425 66.2537 400.775 69.3113C400.028 72.8278 403.337 76.8747 407.124 76.2161C411.278 75.4937 415.647 69.7573 417.13 66.2685C424.257 49.4999 411.33 65.7638 414.994 69.4283C418.883 73.3173 424.81 63.0151 425.586 60.4755C426.521 57.4154 427.07 53.6434 428.19 50.7326C429.642 46.9575 420.371 51.2093 419.5 51.6396C414.678 54.0227 411.312 57.2016 408.031 61.4117C406.843 62.9356 402.077 70.1087 405.339 71.7397C409.711 73.9255 415.078 67.1316 415.199 63.606C415.611 51.663 405.778 57.7839 399.839 62.465C396.169 65.3575 399.357 71.1387 400.014 70.4816" stroke="#ffd63a" stroke-opacity="0.5" stroke-linecap="round" stroke-linejoin="round"/>
<path d="M264.668 364.346C264.439 364.529 255.774 372.003 255.774 369.876C255.774 368.63 256.733 367.296 257.588 366.482C259.278 364.872 265.955 363.634 264.346 367.565C263.268 370.201 258.86 374.087 257.617 369.115C257.101 367.051 260.644 362.908 262.796 364.668C265.168 366.609 260.068 369.082 258.466 368.208C255.604 366.647 259.041 361.09 261.801 362.24C264.688 363.443 260.718 366.731 259.402 367.389C256.326 368.927 256.756 366.441 255.189 364.873" stroke="#ffd63a" stroke-opacity="0.5" stroke-linecap="round" stroke-linejoin="round"/>
<path d="M121.949 363.82C124.985 368.822 130.767 374.013 124.875 378.566C123.355 379.74 114.39 384.435 114.927 378.975C115.581 372.326 125.49 372.178 126.104 366.219C126.71 360.325 112.635 362.546 109.427 358.553C107.417 356.052 105.796 350.509 106.267 347.318C106.45 346.075 109.602 343.663 109.28 345.914C108.692 350.034 95.4068 360.588 103.283 364.054C108.563 366.377 109.925 360.494 113.815 359.08C121.828 356.166 109.836 377.777 109.836 372.246" stroke="#ffd63a" stroke-opacity="0.5" stroke-linecap="round" stroke-linejoin="round"/>
<path d="M380.002 432.283C377.563 438.054 372.629 455.84 372.629 449.574C372.629 448.597 372.818 447.825 373.156 446.912C374.741 442.621 376.577 438.628 379.241 434.857C380.696 432.799 382.429 426.772 384.508 431.346C385.478 433.48 388.253 439.422 387.083 441.762C385.614 444.7 381.054 446.385 378.013 446.502C377.221 446.532 368.913 447.624 371.605 445.156C374.769 442.256 377.83 433.436 382.606 432.839C383.343 432.746 384.884 433.239 385.532 433.599C386.673 434.233 385.283 435.378 384.742 436.262C384.093 437.322 378.959 444.483 378.949 444.161C378.803 439.362 383.727 432.395 386.38 428.772C387.332 427.473 382.269 436.291 381.114 438.281C380.22 439.82 381.386 443.092 377.369 442.289" stroke="#ffd63a" stroke-opacity="0.5" stroke-linecap="round" stroke-linejoin="round"/>
<path d="M216.744 8.86478C214.395 18.0569 212.301 26.8151 211.448 36.1915C211.363 37.1294 210.77 37.7358 211.361 38.4736C212.239 39.5717 214.563 32.5897 215.457 30.7203C218.291 24.7949 221.484 22.4566 221.484 15.1844C221.484 14.1351 221.484 8.0956 221.484 12.0831C221.484 15.4685 222.125 18.8144 221.893 22.2063C221.718 24.77 219.257 31.6889 221.074 29.8718C223.879 27.0672 221.632 13.0049 217.241 12.639C211.249 12.1396 208.359 25.129 207.674 29.1696C206.877 33.8708 210.192 35.839 213.847 32.1832C218.837 27.1934 219.92 16.9347 215.632 11.0884C209.742 3.05641 205.877 17.5488 205.392 21.0945C204.295 29.1151 208.775 31.6853 214.082 25.9806C216.033 23.8824 219.969 20.2543 219.143 16.9984C218.045 12.6676 211.644 16.8731 210.366 18.7539C208.554 21.4209 208.577 28.064 211.507 29.9596C214.242 31.7295 216.904 24.3957 216.598 22.5574C215.298 14.7611 200.602 27.1374 207.908 31.5688C214.267 35.4256 218.482 18.1709 210.658 20.3046C208.48 20.8987 203.305 26.7705 207.791 26.7705" stroke="#ffd63a" stroke-opacity="0.5" stroke-linecap="round" stroke-linejoin="round"/>
<path d="M77.1846 158.957C74.818 165.662 73.1143 169.942 67.1199 173.703C65.6148 174.647 63.6258 176.318 63.3164 178.209C62.6553 182.249 69.0279 186.701 72.6496 185.494C80.2808 182.95 68.7331 175.397 67.5002 173.205C65.3536 169.389 73.112 162.534 76.6872 164.545C79.4701 166.111 80.7037 171.566 79.057 174.229C76.6582 178.11 71.5022 178.263 67.471 177.653C64.2605 177.166 57.8297 177.828 59.7177 182.597C62.0801 188.565 73.23 185.437 74.9024 180.374C76.5307 175.444 67.7157 173.586 69.6068 168.963C70.9058 165.788 75.0074 161.824 78.6474 161.824C83.0075 161.824 78.6533 169.969 78.0038 171.245C75.1355 176.883 70.7468 177.445 65.1889 178.969C54.7282 181.837 65.9974 182.241 66.6518 178.969" stroke="#ffd63a" stroke-opacity="0.5" stroke-linecap="round" stroke-linejoin="round"/>
<path d="M64.5451 231.107C63.4271 235.316 60.1218 242.501 60.449 247.081C60.6023 249.228 61.1886 242.84 61.4438 240.703C61.9298 236.632 62.4859 232.034 64.6621 228.473C65.0484 227.841 73.9803 238.991 74.7853 240.82C76.9396 245.716 74.2425 244.784 70.8648 246.379C68.9875 247.266 56.1774 251.787 56.1774 250.592C56.1774 249.34 58.5924 246.795 59.1617 245.735C60.9435 242.42 62.8552 238.258 63.6088 234.559C65.2183 226.658 64.0184 242.917 64.0184 244.155C64.0184 244.907 64.3105 249.305 62.5556 249.305C60.3592 249.305 64.0404 245.171 64.7791 243.102C65.5625 240.909 68.6808 234.444 67.9097 232.131C66.8176 228.854 66.2713 238.89 66.1543 242.341C66.075 244.681 64.9429 248.586 66.7687 244.799C67.3505 243.592 69.2285 238.645 69.1971 239.006C68.9323 242.051 67.7049 245.19 67.7049 248.252C67.7049 251.385 69.3579 241.298 72.2106 240.001C72.9199 239.678 71.918 245.625 71.918 246.496C71.918 248.081 73.4394 240.405 73.4394 241.99C73.4394 242.432 72.8082 245.103 72.3276 244.272C70.3581 240.871 68.8763 238.768 64.8377 237.543C62.9983 236.985 57.1517 237.368 59.0739 237.368C60.3374 237.368 62.3217 232.971 63.7259 234.12C65.5889 235.644 63.0321 240.51 62.4385 242.166C61.4667 244.877 60.8582 241.064 63.2577 241.347C65.758 241.641 63.2072 250.873 64.6036 248.778C65.2517 247.806 67.215 243.01 67.149 243.57C65.8742 254.406 66.1395 240.608 68.2316 243.746" stroke="#ffd63a" stroke-opacity="0.5" stroke-linecap="round" stroke-linejoin="round"/>
<path d="M325.232 87.8607C331.932 87.5298 338.403 90.0068 337.344 82.0676C336.82 78.1336 334.615 71.7021 335.764 67.8484C336.985 63.7569 344.476 54.5299 338.076 51.6396C332.709 49.2159 325.695 56.0698 324.705 60.7095C324.293 62.6392 324.381 68.6676 327.572 68.6676C329.984 68.6676 331.524 66.2999 333.629 68.4043C336.38 71.1553 336.871 73.6647 334.916 77.1231C330.224 85.4243 311.661 76.1522 321.662 66.1514C323.033 64.7806 328.455 58.4939 331.025 60.2999C334.56 62.7844 334.082 69.2529 332.254 72.4711C330.43 75.6802 323.738 79.0406 321.106 74.9287C319.806 72.8968 320.428 71.5348 322.598 71.5348" stroke="#ffd63a" stroke-opacity="0.5" stroke-linecap="round" stroke-linejoin="round"/>
<path d="M381.337 137.146C381.955 136.896 401.221 127.385 400.325 132.611C399.844 135.415 400.165 138.031 400.559 140.832C400.71 141.904 403.321 150.253 400.705 150.253C395.831 150.253 391.074 147.805 386.194 148.732C384.17 149.116 380.141 150.502 379.991 147.269C379.878 144.844 377.864 133.945 382.653 135.01C386.601 135.887 386.773 132.754 383.97 139.72C383.572 140.709 380.957 148.14 381.395 147.795C385.776 144.353 388.179 137.735 392.191 133.722C394.697 131.217 390.402 141.273 389.88 142.529C387.214 148.947 394.028 137.09 394.795 135.917C398.163 130.766 395.606 139.987 395.088 141.505C393.53 146.068 398.319 137.548 400.237 136.414C406.593 132.658 400.588 145.63 399.243 142.939" stroke="#ffd63a" stroke-opacity="0.5" stroke-linecap="round" stroke-linejoin="round"/>
<path d="M329.445 236.373C329.747 244.114 329.612 248.337 336.174 243.453C338.036 242.068 337.245 245.346 336.788 246.145C336.026 247.48 331.555 254.189 336.057 251.616C337.197 250.965 340.27 249.665 340.27 252.172C340.27 252.568 338.892 257.412 340.241 256.063C342.451 253.853 342.491 245.521 342.611 242.283C342.637 241.576 342.946 240.754 342.318 241.113C339.09 242.957 337.557 252.615 335.881 256.385C334.435 259.64 330.264 255.805 327.865 254.279C323.318 251.385 326.177 253.44 326.285 253.225" stroke="#ffd63a" stroke-opacity="0.5" stroke-linecap="round" stroke-linejoin="round"/>
<path d="M293.107 305.363C293.087 305.608 292.469 320.726 292.58 313.379C292.614 311.137 292.549 308.893 292.58 306.65C292.667 300.281 293.804 303.236 296.559 305.86C297.822 307.063 302.457 309.66 301.708 312.092C301.488 312.809 294.048 314.104 292.873 314.55C291.991 314.884 286.787 318.161 286.787 318.002C286.787 314.089 288.165 309.854 288.63 305.948C289.615 297.677 295.338 319.818 295.711 314.228C295.798 312.912 295.74 305.077 295.74 307.031C295.74 308.485 296.793 316.241 296.793 311.156C296.793 310.005 296.793 308.854 296.793 307.703C296.793 307.161 297.089 309.758 297.291 309.254C298.02 307.43 296.793 303.762 296.793 308.23C296.793 313.246 295.387 309.634 292.317 309.634C289.69 309.634 288.186 319.26 289.537 317.007C290.721 315.035 288.389 307.002 289.42 311.127C289.96 313.286 291.257 310.899 292.053 310.103" stroke="#ffd63a" stroke-opacity="0.5" stroke-linecap="round" stroke-linejoin="round"/>
<path fill-rule="evenodd" clip-rule="evenodd" d="M290.611 249.861C288.169 248.97 285.842 247.668 283.72 245.859C267.696 232.208 274.567 211.612 284.264 200.889C293.962 190.167 353.284 194.444 325.299 244.118C325.181 244.189 325.061 244.26 324.939 244.332C321.81 254.288 324.449 262.827 327.615 273.072C328.906 277.251 330.285 281.714 331.396 286.672L301.716 284.546C293.558 273.468 290.466 262.302 290.611 249.861Z" fill="#F5B9AB"/>
<path d="M283.72 245.859L283.266 246.392L283.72 245.859ZM290.611 249.861L290.851 249.204C291.13 249.306 291.314 249.573 291.311 249.869L290.611 249.861ZM284.264 200.889L284.783 201.359L284.264 200.889ZM325.299 244.118L325.909 244.461C325.849 244.566 325.764 244.654 325.66 244.717L325.299 244.118ZM324.939 244.332L324.272 244.122C324.324 243.957 324.435 243.817 324.585 243.729L324.939 244.332ZM327.615 273.072L326.946 273.279L327.615 273.072ZM331.396 286.672L332.078 286.519C332.127 286.735 332.07 286.961 331.926 287.129C331.782 287.296 331.567 287.386 331.346 287.37L331.396 286.672ZM301.716 284.546L301.666 285.243C301.462 285.229 301.274 285.125 301.153 284.96L301.716 284.546ZM284.173 245.327C286.229 247.078 288.481 248.34 290.851 249.204L290.372 250.518C287.856 249.601 285.456 248.257 283.266 246.392L284.173 245.327ZM284.783 201.359C280.016 206.63 275.95 214.328 275.042 222.355C274.138 230.35 276.361 238.671 284.173 245.327L283.266 246.392C275.055 239.396 272.702 230.594 273.652 222.198C274.598 213.833 278.816 205.872 283.746 200.42L284.783 201.359ZM324.69 243.774C331.639 231.439 333.097 222.046 331.378 215.066C329.664 208.105 324.752 203.393 318.613 200.487C312.465 197.577 305.134 196.507 298.738 196.833C295.543 196.996 292.602 197.506 290.176 198.296C287.737 199.09 285.88 200.146 284.783 201.359L283.746 200.42C285.073 198.952 287.191 197.797 289.743 196.966C292.308 196.131 295.374 195.604 298.667 195.436C305.246 195.101 312.815 196.195 319.212 199.223C325.618 202.255 330.895 207.255 332.736 214.732C334.573 222.19 332.952 231.959 325.909 244.461L324.69 243.774ZM324.585 243.729C324.705 243.658 324.823 243.588 324.939 243.518L325.66 244.717C325.54 244.789 325.418 244.862 325.293 244.935L324.585 243.729ZM326.946 273.279C323.79 263.063 321.068 254.316 324.272 244.122L325.606 244.542C322.552 254.259 325.108 262.591 328.283 272.866L326.946 273.279ZM330.713 286.825C329.609 281.898 328.238 277.46 326.946 273.279L328.283 272.866C329.573 277.042 330.96 281.53 332.078 286.519L330.713 286.825ZM301.766 283.848L331.446 285.975L331.346 287.37L301.666 285.243L301.766 283.848ZM291.311 249.869C291.167 262.17 294.218 273.185 302.279 284.131L301.153 284.96C292.899 273.752 289.764 262.435 289.912 249.853L291.311 249.869Z" fill="black"/>
<path d="M330.624 214.12C335.268 220.582 330.266 236.541 326.575 240.532C357.158 223.563 337.796 185.276 328.36 192.258C326.822 178.103 310.58 173.108 299.507 185.08C271.747 162.662 270.286 200.862 280.085 206.671C289.883 212.48 301.771 206.948 307.94 209.944C314.11 212.939 317.917 231.085 319.915 221.014C321.914 210.943 324.818 206.044 330.624 214.12Z" fill="#ffd63a" stroke="black" stroke-width="1.39887"/>
<path d="M358.072 495.989L315.023 492.865L325.383 376.989C325.383 376.989 275.437 258.63 318.312 258.63C378.893 258.63 399.151 351.966 398.396 376.989C397.64 402.012 358.072 495.989 358.072 495.989Z" fill="#EEEEEE" stroke="black" stroke-width="1.39887"/>
<path d="M314.697 497.877L315.299 492.645L358.651 494.387L357.695 502.795C356.15 516.389 342.534 525.155 329.519 520.935C319.72 517.757 313.52 508.111 314.697 497.877Z" fill="#F5B9AB" stroke="black" stroke-width="1.39887" stroke-linejoin="round"/>
<path d="M252.211 412.602C224.208 385.451 259.008 295.516 264.684 284.813C272.947 269.561 297.75 243.028 330.852 258.912C380.909 282.932 358.035 401.78 349.037 442.978L252.211 412.602Z" fill="#EEEEEE" stroke="black" stroke-width="1.39887"/>
<path d="M34.1542 506.857L29.6416 466.065C29.6416 466.065 134.411 432.111 220.758 419.371L339.316 429.612C357.125 471.696 348.342 549.038 216.256 513.481L34.1542 506.857Z" fill="#ffd63a" stroke="black" stroke-width="1.39887"/>
<path fill-rule="evenodd" clip-rule="evenodd" d="M161.109 435.389L142.494 493.285L103.438 491.377L85.617 383.371C82.6647 365.479 96.4687 349.21 114.603 349.21L138.767 349.21L140.436 346.601L148.548 349.21C155.031 349.218 160.901 351.281 165.658 354.714L329.786 407.51C355.168 415.675 366.585 445.144 353.327 468.278L328.219 512.092C315.186 534.835 284.714 540.179 264.72 523.228L161.109 435.389Z" fill="#ffd63a"/>
<path d="M161.109 435.389L161.561 434.855L160.763 434.179L160.443 435.175L161.109 435.389ZM142.494 493.285L142.46 493.983L142.996 494.009L143.16 493.499L142.494 493.285ZM103.438 491.377L102.747 491.49L102.839 492.048L103.403 492.075L103.438 491.377ZM85.617 383.371L86.3071 383.257L85.617 383.371ZM114.603 349.21V349.91V349.21ZM138.767 349.21V349.91H139.15L139.356 349.587L138.767 349.21ZM140.436 346.601L140.651 345.935L140.138 345.77L139.847 346.224L140.436 346.601ZM148.548 349.21L148.334 349.876L148.438 349.91L148.547 349.91L148.548 349.21ZM165.658 354.714L165.249 355.281L165.339 355.346L165.444 355.38L165.658 354.714ZM329.786 407.51L330 406.844L329.786 407.51ZM353.327 468.278L353.934 468.626L353.327 468.278ZM328.219 512.092L327.612 511.744L328.219 512.092ZM264.72 523.228L265.172 522.694L264.72 523.228ZM160.443 435.175L141.828 493.07L143.16 493.499L161.775 435.603L160.443 435.175ZM142.528 492.586L103.472 490.678L103.403 492.075L142.46 493.983L142.528 492.586ZM104.128 491.263L86.3071 383.257L84.9269 383.485L102.747 491.49L104.128 491.263ZM86.3071 383.257C83.4251 365.791 96.9004 349.91 114.603 349.91L114.603 348.511C96.0369 348.511 81.9043 365.166 84.9269 383.485L86.3071 383.257ZM114.603 349.91L138.767 349.91V348.511L114.603 348.511V349.91ZM139.356 349.587L141.026 346.978L139.847 346.224L138.178 348.833L139.356 349.587ZM140.222 347.267L148.334 349.876L148.762 348.544L140.651 345.935L140.222 347.267ZM148.547 349.91C154.879 349.917 160.606 351.931 165.249 355.281L166.068 354.147C161.195 350.631 155.183 348.519 148.549 348.511L148.547 349.91ZM165.444 355.38L329.571 408.176L330 406.844L165.873 354.048L165.444 355.38ZM329.571 408.176C354.53 416.204 365.757 445.182 352.72 467.931L353.934 468.626C367.412 445.106 355.806 415.145 330 406.844L329.571 408.176ZM352.72 467.931L327.612 511.744L328.826 512.44L353.934 468.626L352.72 467.931ZM327.612 511.744C314.796 534.108 284.833 539.363 265.172 522.694L264.267 523.761C284.595 540.995 315.575 535.562 328.826 512.44L327.612 511.744ZM265.172 522.694L161.561 434.855L160.657 435.923L264.267 523.761L265.172 522.694Z" fill="black"/>
<path d="M102.988 490.936L142.926 493.298L146.022 526.825C146.022 526.825 110.986 525.809 89.7321 519.161L104.018 512.14L102.988 490.936Z" fill="#EEEEEE" stroke="black" stroke-width="1.39887" stroke-linejoin="round"/>
<rect width="97.773" height="18.3324" rx="2.00878" transform="matrix(0.258819 0.965926 0.965926 -0.258819 89.5281 246.538)" fill="#EEEEEE" stroke="black" stroke-width="1.39887"/>
<rect width="97.773" height="18.3324" rx="2.00878" transform="matrix(-1 0 0 1 208.723 331.418)" fill="#ffd63a" stroke="black" stroke-width="1.39887"/>
<path d="M29.9524 466.095L34.8922 506.877L5.0809 515.105C5.0809 515.105 -0.535751 479.966 2.18598 457.521L12.0313 470.456L29.9524 466.095Z" fill="#EEEEEE" stroke="black" stroke-width="1.39887" stroke-linejoin="round"/>
<path d="M177.994 360.615L200.366 323.338L268.96 360.689C265.815 317.582 295.402 255.546 326.471 259.325C380.976 265.953 340.821 400.301 305.116 423.983C269.41 447.664 177.994 360.615 177.994 360.615Z" fill="#EEEEEE"/>
<path d="M348.174 341.777C339.738 377.124 321.933 412.829 305.116 423.983C269.41 447.664 177.994 360.615 177.994 360.615L200.366 323.338L268.96 360.689L292.274 302.2" stroke="black" stroke-width="1.39887"/>
<path d="M196.293 320.51L200.578 323.573L178.038 360.645L171.148 355.734C160.007 347.792 158.94 331.633 168.941 322.296C176.471 315.266 187.913 314.519 196.293 320.51Z" fill="#F5B9AB" stroke="black" stroke-width="1.39887" stroke-linejoin="round"/>
</svg>
